<svg xmlns="http://www.w3.org/2000/svg" width="32" height="30" viewBox="0 0 32 30">
  <g fill="none" fill-rule="evenodd" stroke="#3FB93B" stroke-linejoin="round" stroke-width="1.333">
    <path d="M31.3333333,26.8 C31.3333333,27.832 30.4733333,28.6666667 29.416,28.6666667 L2.584,28.6666667 C1.524,28.6666667 0.666666667,27.832 0.666666667,26.8 L0.666666667,10 L31.3333333,10 L31.3333333,26.8 Z"/>
    <polygon points="11.333 24.667 11.333 14 22 19.333"/>
    <path d="M31.3333333,7.33333333 L0.666666667,7.33333333 L0.666666667,2 C0.666666667,1.264 1.26266667,0.666666667 2,0.666666667 L30,0.666666667 C30.7373333,0.666666667 31.3333333,1.264 31.3333333,2 L31.3333333,7.33333333 Z"/>
    <line x1=".667" x2="6.667" y1="6.668" y2=".667"/>
    <line x1="4.661" x2="11.333" y1="7.339" y2=".667"/>
    <line x1="9.995" x2="16.667" y1="7.339" y2=".667"/>
    <line x1="15.328" x2="22" y1="7.339" y2=".667"/>
    <line x1="20.677" x2="27.333" y1="7.324" y2=".667"/>
    <line x1="26" x2="31.333" y1="7.333" y2="2"/>
  </g>
</svg>
