<svg xmlns="http://www.w3.org/2000/svg" width="263" height="40" viewBox="0 0 263 40">
  <g fill="none" fill-rule="evenodd">
    <polygon fill="#02A44F" points="95.579 7.789 95.579 7.789 94.813 7.433 93.876 7.167 92.002 6.633 89.959 6.366 87.745 6.277 86.553 6.277 85.445 6.455 84.508 6.633 83.486 6.811 82.635 7.167 81.784 7.522 81.103 7.967 80.421 8.411 79.826 8.945 79.315 9.479 78.802 10.101 78.463 10.812 78.208 11.524 77.952 12.235 77.868 13.036 77.782 13.836 77.868 14.547 77.952 15.17 78.037 15.793 78.293 16.326 78.548 16.949 78.889 17.393 79.229 17.927 79.655 18.372 80.167 18.728 80.762 19.172 82.04 19.884 83.573 20.595 85.275 21.218 88.001 22.196 89.107 22.551 89.959 22.996 90.726 23.529 90.981 23.796 91.151 24.152 91.321 24.508 91.491 24.864 91.577 25.308 91.577 25.753 91.491 26.553 91.237 27.176 90.81 27.798 90.13 28.332 89.448 28.777 88.511 29.132 87.489 29.31 86.297 29.4 85.53 29.31 84.849 29.221 84.083 29.132 83.486 28.954 82.806 28.687 82.21 28.42 81.699 28.066 81.187 27.621 80.677 27.264 80.251 26.731 79.826 26.197 79.485 25.663 79.229 25.041 78.974 24.419 78.802 23.708 78.634 22.996 77.868 22.996 77.952 30.911 78.974 31.266 79.995 31.622 81.018 31.978 82.125 32.155 83.147 32.422 84.253 32.512 85.361 32.6 86.467 32.6 87.745 32.6 88.852 32.512 89.959 32.245 90.981 31.978 91.918 31.622 92.855 31.266 93.621 30.821 94.388 30.288 94.982 29.755 95.579 29.132 96.003 28.42 96.429 27.798 96.77 27.087 96.942 26.286 97.112 25.575 97.196 24.774 97.112 24.063 97.026 23.441 96.855 22.818 96.686 22.284 96.429 21.751 96.09 21.306 95.749 20.773 95.323 20.329 94.813 19.884 94.216 19.527 92.939 18.817 91.491 18.105 89.705 17.482 86.893 16.504 85.701 16.06 84.849 15.615 84.083 15.17 83.828 14.904 83.573 14.547 83.402 14.192 83.232 13.836 83.147 13.481 83.147 13.036 83.232 12.235 83.486 11.524 83.828 10.902 84.339 10.457 85.021 10.013 85.787 9.745 86.723 9.479 87.745 9.479 89.107 9.568 90.385 9.834 91.491 10.28 92.513 10.902 93.024 11.347 93.45 11.702 93.79 12.147 94.131 12.68 94.471 13.214 94.727 13.747 94.897 14.281 95.068 14.904 95.836 14.904"/>
    <polygon fill="#02A44F" points="46.702 6.811 46.702 7.789 47.212 7.789 47.637 7.967 47.979 8.055 48.233 8.323 48.404 8.59 48.49 8.857 48.575 9.301 48.575 9.834 48.575 10.368 47.467 27.976 47.382 29.4 47.212 29.932 47.042 30.376 46.787 30.732 46.446 30.911 45.935 31.088 45.253 31.178 45.253 32.155 52.746 32.155 52.746 31.178 51.726 30.911 51.385 30.732 51.13 30.555 50.959 30.288 50.788 29.932 50.703 29.577 50.703 29.042 50.703 28.066 51.47 12.502 58.452 32.155 61.432 32.155 67.82 12.768 68.755 27.532 68.755 28.598 68.755 29.221 68.67 29.665 68.586 30.11 68.33 30.466 68.075 30.732 67.734 30.911 67.223 31 66.627 31.178 66.627 32.155 75.909 32.155 75.909 31.178 75.312 31 74.886 30.911 74.545 30.732 74.291 30.466 74.12 30.11 74.035 29.755 73.95 28.598 72.672 10.546 72.672 9.389 72.672 9.034 72.758 8.767 72.843 8.5 73.013 8.234 73.269 8.055 73.524 7.967 74.206 7.789 74.206 6.811 66.712 6.811 60.922 24.33 54.619 6.811"/>
    <polygon fill="#02A44F" points="2.677 6.811 2.677 7.789 3.188 7.789 3.613 7.967 3.954 8.055 4.21 8.323 4.38 8.59 4.465 8.857 4.55 9.301 4.635 9.834 4.635 10.368 3.443 27.976 3.359 29.4 3.188 29.932 3.017 30.376 2.762 30.732 2.422 30.911 1.91 31.088 1.23 31.178 1.23 32.155 8.723 32.155 8.723 31.178 7.786 30.911 7.361 30.732 7.105 30.555 6.935 30.288 6.765 29.932 6.679 29.577 6.679 29.042 6.765 28.066 7.531 12.502 14.513 32.155 17.493 32.155 23.795 12.768 24.732 27.532 24.732 28.598 24.732 29.221 24.646 29.665 24.562 30.11 24.392 30.466 24.051 30.732 23.711 30.911 23.198 31 22.603 31.178 22.603 32.155 31.885 32.155 31.885 31.178 31.374 31 30.863 30.911 30.522 30.732 30.352 30.466 30.181 30.11 30.011 29.755 29.927 28.598 28.649 10.546 28.649 9.389 28.649 9.034 28.733 8.767 28.819 8.5 28.989 8.234 29.245 8.055 29.501 7.967 30.181 7.789 30.181 6.811 22.688 6.811 16.898 24.33 10.596 6.811"/>
    <g transform="translate(0 .322)">
      <path fill="#EA2227" d="M1.85706104 38.1481613L3.02335534 38.1481613C3.23920796 38.1481613 3.39525063 38.1181851 3.49033313 38.0578483 3.59960134 37.9882881 3.65481053 37.8753008 3.65481053 37.7185021 3.65481053 37.5628564 3.59960134 37.4494848 3.49033313 37.379156 3.39716761 37.3192035 3.24112495 37.288843 3.02335534 37.288843L1.85706104 37.288843 1.85706104 38.1481613zM1.85706104 36.7688708L3.06246185 36.7688708C3.24457552 36.7688708 3.37224679 36.7427377 3.44470887 36.6877813 3.52598907 36.626676 3.56624578 36.5317513 3.56624578 36.4018543 3.56624578 36.2696515 3.52790606 36.1754954 3.45161002 36.1186174 3.37493057 36.0628924 3.24457552 36.0348377 3.06246185 36.0348377L1.85706104 36.0348377 1.85706104 36.7688708zM3.8246555 37.0163668C4.17776432 37.1501069 4.35489383 37.3979872 4.35489383 37.7596234 4.35489383 38.0478563 4.25214338 38.2730622 4.04587568 38.4363942 3.94159164 38.5182523 3.82082152 38.5766675 3.68318193 38.6135614 3.54554233 38.6493022 3.37608077 38.6677491 3.17288025 38.6677491L1.02278872 38.6677491 1.02278872 38.5935772C1.07838132 38.5782048 1.11633764 38.5582206 1.13819128 38.5336248 1.16004492 38.5086446 1.17039665 38.4729037 1.17039665 38.4256335L1.17039665 35.7577499C1.17039665 35.7100954 1.16004492 35.6739702 1.13819128 35.64899 1.11633764 35.6243941 1.07838132 35.60441 1.02278872 35.5894219L1.02278872 35.5152499 3.1525602 35.5152499C3.35576071 35.5152499 3.52062151 35.530238 3.64484221 35.5613672 3.7690629 35.592112 3.8783311 35.6447626 3.97188002 35.7181659 4.15782767 35.8649725 4.25060979 36.0751904 4.25060979 36.3511253 4.25060979 36.658958 4.10875282 36.8807052 3.8246555 37.0163668L3.8246555 37.0163668zM13.3387722 37.4320755L12.8288539 36.3091202 12.3101175 37.4320755 13.3387722 37.4320755zM13.5362217 37.8636562L12.1065335 37.8636562 11.8948983 38.3071506C11.8661435 38.3686403 11.851191 38.4170634 11.851191 38.45242 11.851191 38.5208272 11.9021828 38.5677131 12.0049333 38.5934619L12.0049333 38.6676338 10.9651601 38.6676338 10.9651601 38.5934619C11.0261202 38.581164 11.0732781 38.5596426 11.1058668 38.5288977 11.1380722 38.4981529 11.1744949 38.4382005 11.2162852 38.3486561L12.3726112 35.9267312C12.4094173 35.8494848 12.4282038 35.7876108 12.4282038 35.7418778 12.4282038 35.6707804 12.3837297 35.6200514 12.2940148 35.5893066L12.2940148 35.5155189 13.4097006 35.5155189 13.4097006 35.5893066C13.3188355 35.6150554 13.2735946 35.6607883 13.2735946 35.7257368 13.2735946 35.7703168 13.2885471 35.8210458 13.3173019 35.8775395L14.5154182 38.3071506C14.5660266 38.4105301 14.6108841 38.4808589 14.6488404 38.5189057 14.6879469 38.5565681 14.7385553 38.581164 14.8033495 38.5934619L14.8033495 38.6676338 13.6462567 38.6676338 13.6462567 38.5934619C13.7470902 38.5769366 13.798082 38.5288977 13.798082 38.4504984 13.798082 38.417832 13.7827461 38.3701775 13.7524577 38.3071506L13.5362217 37.8636562zM22.353859 36.508462L22.353859 38.4254029C22.353859 38.4726731 22.3642107 38.5087983 22.3860644 38.5337785 22.407918 38.5583744 22.4454909 38.5783585 22.5014669 38.5937309L22.5014669 38.6675186 21.5778631 38.6675186 21.5778631 38.5937309C21.6326889 38.5783585 21.671412 38.5583744 21.6924988 38.5337785 21.7147359 38.5087983 21.7243208 38.4726731 21.7243208 38.4254029L21.7243208 35.7552134C21.7243208 35.7090961 21.7147359 35.6737396 21.6924988 35.6491437 21.671412 35.6241635 21.6326889 35.6041794 21.5778631 35.5891913L21.5778631 35.5154036 22.6467745 35.5154036 22.6467745 35.5891913C22.5804468 35.6057166 22.5470912 35.6414575 22.5470912 35.695261 22.5470912 35.7321548 22.5693282 35.773276 22.6122687 35.817856L24.3463743 37.626037 24.3463743 35.7552134C24.3463743 35.7090961 24.3360226 35.6737396 24.3145523 35.6491437 24.2923153 35.6241635 24.2539756 35.6041794 24.1991498 35.5891913L24.1991498 35.5154036 25.123137 35.5154036 25.123137 35.5891913C25.0679278 35.6041794 25.0295881 35.6241635 25.0081179 35.6491437 24.9862642 35.6737396 24.9759125 35.7090961 24.9759125 35.7552134L24.9759125 38.4254029C24.9759125 38.4726731 24.9862642 38.5087983 25.0081179 38.5337785 25.0295881 38.5583744 25.0679278 38.5783585 25.123137 38.5937309L25.123137 38.6675186 24.1320552 38.6675186 24.1320552 38.5937309C24.1968494 38.5802801 24.2294381 38.5468451 24.2294381 38.4945788 24.2294381 38.463834 24.1914818 38.4096462 24.116336 38.3327841L22.353859 36.508462zM34.9752566 37.5334182L34.1992607 37.5334182C34.1513361 37.5334182 34.1156801 37.5445632 34.0915261 37.5664689 34.0685223 37.587606 34.0482022 37.626037 34.0324829 37.6813778L33.9588707 37.6813778 33.9588707 36.9469603 34.0324829 36.9469603C34.0482022 37.0038383 34.0685223 37.0426537 34.0915261 37.0637907 34.1152967 37.0841592 34.1509527 37.0945356 34.1984939 37.0945356L35.6895256 37.0945356 35.6895256 37.1687075C35.6350832 37.1844642 35.5967435 37.2044484 35.5745065 37.2290443 35.5530362 37.2532558 35.5423011 37.289381 35.5423011 37.3374198L35.5423011 37.9842144C35.5423011 38.031869 35.5530362 38.0679941 35.5733563 38.0922057 35.5948265 38.1168016 35.6335496 38.13717 35.6895256 38.1521581L35.6895256 38.2105733C35.0925762 38.5518411 34.5136464 38.7228593 33.9531197 38.7228593 33.4455018 38.7228593 33.030666 38.6018015 32.7097626 38.3604544 32.3064287 38.0556962 32.1047618 37.6325703 32.1047618 37.0903082 32.1047618 36.5853241 32.2841917 36.1837196 32.6434348 35.8851104 32.9850418 35.6014892 33.4370671 35.4596786 34.0025779 35.4596786 34.1827746 35.4596786 34.3526196 35.4765883 34.511346 35.5092547 34.6700725 35.5426897 34.8506526 35.5984147 35.0530863 35.6768141 35.1581371 35.7179353 35.2328996 35.7394567 35.2773736 35.7394567 35.3091956 35.7394567 35.3471519 35.7213941 35.3900924 35.6860375L35.4541198 35.7206255 35.0845248 36.47618 35.0174303 36.4412077C35.0162801 36.3904787 35.009379 36.3543535 34.9971103 36.3328321 34.9848416 36.3101578 34.957237 36.2824874 34.9135297 36.2502054 34.8203642 36.1802609 34.683108 36.1199241 34.5017611 36.0699637 34.321181 36.0203877 34.1501859 35.9950232 33.9883922 35.9950232 33.6598208 35.9950232 33.3876088 36.087642 33.170606 36.2721111 32.9271488 36.4815603 32.8048451 36.7578796 32.8048451 37.1010689 32.8048451 37.4327288 32.9240816 37.7013619 33.1621713 37.9058151 33.3799409 38.0933586 33.6671054 38.1867461 34.0240482 38.1867461 34.1977271 38.1867461 34.3687223 38.1671463 34.537417 38.1267936 34.7061118 38.0868254 34.8521861 38.0322533 34.9752566 37.9630774L34.9752566 37.5334182zM43.5676097 38.1481613L45.4999317 38.1481613C45.5478563 38.1481613 45.5835122 38.1374006 45.6080497 38.1158792 45.6333539 38.0939735 45.6525237 38.0559268 45.668243 38.0002018L45.7418553 38.0002018 45.7418553 38.8153244 45.668243 38.8153244C45.6525237 38.7595994 45.6333539 38.7215526 45.6080497 38.7000312 45.5835122 38.6781255 45.5478563 38.6677491 45.4999317 38.6677491L42.732954 38.6677491 42.732954 38.5935772C42.7881632 38.5782048 42.8265029 38.5582206 42.84874 38.5336248 42.8698268 38.5086446 42.8801786 38.4729037 42.8801786 38.4256335L42.8801786 35.7577499C42.8801786 35.7100954 42.8698268 35.6739702 42.84874 35.64899 42.8265029 35.6243941 42.7881632 35.60441 42.732954 35.5894219L42.732954 35.5152499 43.7148343 35.5152499 43.7148343 35.5894219C43.6596251 35.603257 43.620902 35.6224726 43.5990483 35.6478371 43.5775781 35.6732015 43.5676097 35.7100954 43.5676097 35.7577499L43.5676097 38.1481613zM54.8572389 37.4320755L54.3473206 36.3091202 53.8289675 37.4320755 54.8572389 37.4320755zM55.0546884 37.8636562L53.6253836 37.8636562 53.413365 38.3071506C53.3846102 38.3686403 53.3700411 38.4170634 53.3700411 38.45242 53.3700411 38.5208272 53.4214163 38.5677131 53.5237834 38.5934619L53.5237834 38.6676338 52.4840102 38.6676338 52.4840102 38.5934619C52.5449703 38.581164 52.5925116 38.5596426 52.6243335 38.5288977 52.6565389 38.4981529 52.6929616 38.4382005 52.7351353 38.3486561L53.8914613 35.9267312C53.9282674 35.8494848 53.9462871 35.7876108 53.9462871 35.7418778 53.9462871 35.6707804 53.9025798 35.6200514 53.8128649 35.5893066L53.8128649 35.5155189 54.9285507 35.5155189 54.9285507 35.5893066C54.8376856 35.6150554 54.7920613 35.6607883 54.7920613 35.7257368 54.7920613 35.7703168 54.8066304 35.8210458 54.8357686 35.8775395L56.0342683 38.3071506C56.0852601 38.4105301 56.1289674 38.4808589 56.1676905 38.5189057 56.2060302 38.5565681 56.257022 38.581164 56.3221996 38.5934619L56.3221996 38.6676338 55.16434 38.6676338 55.16434 38.5934619C55.2659403 38.5769366 55.3165487 38.5288977 55.3165487 38.4504984 55.3165487 38.417832 55.3015962 38.3701775 55.2701576 38.3071506L55.0546884 37.8636562zM63.9303337 38.1481613L64.792594 38.1481613C65.0682566 38.1481613 65.2752911 38.1101146 65.4133141 38.0347897 65.7100635 37.8726107 65.8584382 37.5582447 65.8584382 37.0901544 65.8584382 36.7515769 65.7783082 36.491783 65.6180482 36.3115413 65.5298668 36.2120049 65.4221322 36.1409075 65.2956111 36.098249 65.1698569 36.0555905 65.0019289 36.0348377 64.792594 36.0348377L63.9303337 36.0348377 63.9303337 38.1481613zM63.2440527 38.4256335L63.2440527 35.7577499C63.2440527 35.7100954 63.2329342 35.6739702 63.2114639 35.64899 63.1892269 35.6243941 63.1508872 35.60441 63.0960614 35.5894219L63.0960614 35.5152499 64.8501036 35.5152499C65.2350344 35.5152499 65.5298668 35.558677 65.7361345 35.6466841 66.030967 35.7746595 66.24912 35.9852617 66.3905936 36.2796436 66.5025455 36.5102299 66.5581381 36.7804002 66.5581381 37.0901544 66.5581381 37.6335695 66.3925106 38.0478563 66.058955 38.3326304 65.9186316 38.4525352 65.7553044 38.5386208 65.5674398 38.5901184 65.3803419 38.641616 65.1403353 38.6677491 64.8501036 38.6677491L63.0960614 38.6677491 63.0960614 38.5935772C63.1508872 38.5782048 63.1892269 38.5582206 63.2114639 38.5336248 63.2329342 38.5086446 63.2440527 38.4729037 63.2440527 38.4256335L63.2440527 38.4256335zM74.3928984 37.2845771L74.3928984 38.1481229 76.4153186 38.1481229C76.4617097 38.1481229 76.4965988 38.1373622 76.521903 38.1158408 76.5456737 38.0939351 76.5663771 38.0558884 76.5820964 38.0001633L76.6553253 38.0001633 76.6553253 38.815286 76.5820964 38.815286C76.5663771 38.7595609 76.5456737 38.7215142 76.521903 38.6999928 76.4965988 38.6780871 76.4617097 38.6677107 76.4153186 38.6677107L73.558626 38.6677107 73.558626 38.5935388C73.6142186 38.5781664 73.6517916 38.5581822 73.6740286 38.5335863 73.6958822 38.5089905 73.7066174 38.4728653 73.7066174 38.4255951L73.7066174 35.7577114C73.7066174 35.7100569 73.6958822 35.6739317 73.6740286 35.6489516 73.6517916 35.6243557 73.6142186 35.6043715 73.558626 35.5893834L73.558626 35.5152115 76.3604928 35.5152115C76.4065005 35.5152115 76.4425398 35.5044508 76.4663104 35.4821608 76.4908479 35.4606394 76.5107845 35.421824 76.5261204 35.3672519L76.6001161 35.3672519 76.6001161 36.1823746 76.5261204 36.1823746C76.5107845 36.1278025 76.4908479 36.0897557 76.4663104 36.0682343 76.4425398 36.04556 76.4065005 36.0347993 76.3604928 36.0347993L74.3928984 36.0347993 74.3928984 36.7830519 75.6688443 36.7830519C75.7148519 36.7830519 75.7508913 36.7722912 75.7750453 36.7507698 75.7995827 36.7296327 75.8199028 36.6904331 75.8348552 36.6354767L75.9088509 36.6354767 75.9088509 37.4321524 75.8348552 37.4321524C75.8199028 37.3783489 75.7995827 37.3403022 75.7750453 37.3180122 75.7508913 37.2953378 75.7148519 37.2845771 75.6688443 37.2845771L74.3928984 37.2845771zM86.5762264 35.7826148L86.2004971 36.5243341 86.1360864 36.4870559C86.13762 36.4724521 86.1387701 36.4593856 86.1387701 36.4505464 86.1387701 36.3982802 86.0939127 36.3417866 86.0053479 36.2818341 85.7316023 36.0912161 85.4103155 35.9951385 85.0418707 35.9951385 84.8793103 35.9951385 84.7347696 36.0151226 84.6113157 36.0550909 84.5204505 36.0866044 84.4472217 36.1323373 84.3912457 36.1934427 84.3348863 36.2553167 84.3068983 36.3218024 84.3068983 36.3952057 84.3068983 36.5128047 84.3782102 36.5938943 84.5216007 36.636937 84.5948296 36.6580741 84.7531726 36.6815171 84.9962465 36.7057286L85.3574066 36.7430067C85.5724925 36.7660654 85.7465548 36.7975788 85.8795936 36.8371628 86.0122491 36.8778997 86.1303354 36.9340091 86.2334693 37.0062595 86.3369865 37.0812 86.4201837 37.1803521 86.4807605 37.3037158 86.5409538 37.4270795 86.5716256 37.5581294 86.5716256 37.6984027 86.5716256 37.9197656 86.5003137 38.1165326 86.3576899 38.2887037 86.2284851 38.4458867 86.027585 38.5619485 85.7557563 38.6376576 85.5533226 38.6945356 85.3363198 38.7225903 85.1043645 38.7225903 84.6883785 38.7225903 84.2769933 38.6226695 83.8709757 38.422828 83.7854781 38.3828598 83.7344863 38.3632599 83.7172334 38.3632599 83.69653 38.3632599 83.6654748 38.3797853 83.6229177 38.4139889L83.5558232 38.3790166 83.8970467 37.6050153 83.9637578 37.6372973 83.9637578 37.6672736C83.9637578 37.7368338 83.9963466 37.8006293 84.0630577 37.8590445 84.162741 37.9489732 84.3168666 38.025451 84.5254347 38.0903994 84.7343862 38.1545793 84.9329859 38.1868614 85.1204672 38.1868614 85.3244345 38.1868614 85.4988802 38.1526577 85.6430376 38.0834819 85.723551 38.0454351 85.7868115 37.9939375 85.8343528 37.9305263 85.8822774 37.8667307 85.9056646 37.7998607 85.9056646 37.7306848 85.9056646 37.6261523 85.8496887 37.5519804 85.7377367 37.5077847 85.6595236 37.4766555 85.5011806 37.4482166 85.2630909 37.4224678L84.9080651 37.3851896C84.6699755 37.3602094 84.5020475 37.3367665 84.4035144 37.3144765 84.3053647 37.2918022 84.207215 37.2568299 84.1086819 37.2072539 83.968742 37.1376937 83.8590904 37.0335455 83.7797271 36.8951937 83.7068817 36.7699085 83.6708423 36.6265607 83.6708423 36.4647659 83.6708423 36.1984387 83.7620909 35.9786131 83.9457381 35.8045205 84.184978 35.5743184 84.5442212 35.4597939 85.0234677 35.4597939 85.2247512 35.4597939 85.4122324 35.4801624 85.585528 35.5208993 85.7592069 35.5620205 85.9758263 35.638114 86.2350028 35.7472582 86.3243344 35.7829991 86.3787768 35.8006773 86.3987135 35.8006773 86.4313022 35.8006773 86.4692585 35.7829991 86.5114322 35.7472582L86.5762264 35.7826148zM96.2031001 37.291341L94.3896314 37.291341 94.3896314 38.4273629C94.3896314 38.4734802 94.4007499 38.5092211 94.4233703 38.5345855 94.4452239 38.5603344 94.4831803 38.5803185 94.5364725 38.5937694L94.5364725 38.667557 93.5557424 38.667557 93.5557424 38.5937694C93.6109516 38.5783969 93.6492913 38.5584128 93.6707616 38.5334326 93.6922318 38.5088367 93.702967 38.4734802 93.702967 38.4273629L93.702967 35.7552518C93.702967 35.7091346 93.6922318 35.673778 93.6707616 35.6491821 93.6492913 35.624202 93.6109516 35.6042178 93.5557424 35.5892297L93.5557424 35.5154421 94.5364725 35.5154421 94.5364725 35.5892297C94.4816467 35.6030649 94.443307 35.6222804 94.4218367 35.6480292 94.3999831 35.6730094 94.3896314 35.7091346 94.3896314 35.7552518L94.3896314 36.7713689 96.2031001 36.7713689 96.2031001 35.7552518C96.2031001 35.7091346 96.1919816 35.6730094 96.1708948 35.6480292 96.1486577 35.6222804 96.1107014 35.6030649 96.0551088 35.5892297L96.0551088 35.5154421 97.0366057 35.5154421 97.0366057 35.5892297C96.9813965 35.6042178 96.9430567 35.624202 96.9215865 35.6491821 96.8997329 35.673778 96.8897645 35.7091346 96.8897645 35.7552518L96.8897645 38.4273629C96.8897645 38.4734802 96.8997329 38.5088367 96.9215865 38.5334326 96.9430567 38.5584128 96.9813965 38.5783969 97.0366057 38.5937694L97.0366057 38.667557 96.0551088 38.667557 96.0551088 38.5937694C96.1091678 38.5803185 96.1471241 38.5603344 96.1693612 38.5345855 96.1915982 38.5092211 96.2031001 38.4734802 96.2031001 38.4273629L96.2031001 37.291341z"/>
      <path fill="#02A44F" d="M44.1310886,10.544789 C44.1310886,13.0916148 42.0638109,15.1634329 39.5230376,15.1634329 C36.9822643,15.1634329 34.91537,13.0916148 34.91537,10.544789 C34.91537,7.99796315 36.9822643,5.92576081 39.5230376,5.92576081 C40.7537426,5.92576081 41.9112188,6.40576466 42.7811471,7.27853386 C43.6518421,8.15091874 44.1310886,9.3107679 44.1310886,10.544789"/>
      <path fill="#EA2227" d="M41.7127724,10.4828381 C41.7127724,11.6949535 40.7324258,12.6768669 39.523191,12.6768669 C38.3143396,12.6768669 37.3347597,11.6949535 37.3347597,10.4828381 C37.3347597,9.27149137 38.3143396,8.28880936 39.523191,8.28880936 C40.7324258,8.28880936 41.7127724,9.27149137 41.7127724,10.4828381"/>
      <path fill="#02A44F" d="M43.4650126,30.7663248 L43.0390584,30.5887733 L42.6982182,30.4104532 L42.4440259,30.2332861 L42.2730307,29.8774146 L42.1886834,29.5223116 L42.1031858,29.0776644 L42.0180716,28.6326328 L42.0180716,21.5225038 L42.0238226,21.5225038 L42.0238226,16.8416016 C42.0238226,16.8416016 41.5859829,17.3688757 39.555128,17.4176831 C38.0272901,17.4538083 36.8241897,16.8416016 36.8241897,16.8416016 L36.8241897,28.6326328 L36.7379253,29.0776644 L36.7379253,29.5223116 L36.5680803,29.8774146 L36.397852,30.2332861 L36.1417426,30.4104532 L35.8012859,30.5887733 L35.3753316,30.7663248 L34.9501441,30.8558691 L34.9501441,31.8335551 L43.8909669,31.8335551 L43.8909669,30.8558691 L43.4650126,30.7663248 Z"/>
      <path fill="#231F20" d="M8.68632375,2.20909375 L8.69820906,2.20909375 L8.97847242,2.20909375 L8.99035773,2.20909375 L9.02716387,2.20909375 L9.0632032,2.23330531 C9.07585531,2.23330531 9.08774062,2.23330531 9.08774062,2.24560325 C9.08774062,2.25751687 9.10000933,2.25751687 9.11189465,2.25751687 C9.11189465,2.26981481 9.12454676,2.28211275 9.12454676,2.28211275 C9.13643207,2.29441068 9.13643207,2.29441068 9.14870078,2.30632431 C9.14870078,2.30632431 9.16058609,2.31862225 9.16058609,2.33092018 C9.1732382,2.33092018 9.1732382,2.34321812 9.1732382,2.34321812 C9.18512351,2.35513175 9.18512351,2.36742968 9.19739222,2.36742968 C9.19739222,2.37972762 9.19739222,2.39202556 9.20927754,2.39202556 L9.20927754,2.44083299 L9.22154625,2.46504456 L9.20927754,2.51385199 L9.19739222,2.55036149 L9.1732382,2.56265943 L9.14870078,2.58687099 C9.11189465,2.59916893 9.05131789,2.6237648 8.97847242,2.64797636 C8.90524355,2.68448586 8.82012937,2.70908174 8.72274648,2.74559124 C8.61347828,2.78210074 8.50382668,2.83090817 8.40682719,2.89201355 C8.29679219,2.96503255 8.18752399,3.03805155 8.06598707,3.13566642 C8.05371836,3.14796436 8.04144965,3.16026229 8.02918094,3.17217592 C8.01729563,3.18447385 7.99275821,3.19677179 7.9804895,3.20906973 C7.96860418,3.22098335 7.95633547,3.23328129 7.94406676,3.24557923 C7.93179805,3.25787716 7.91991274,3.26979079 7.91991274,3.26979079 C8.11467852,3.52612591 8.28490688,3.72135566 8.43098121,3.87969159 C8.57705555,4.03802753 8.69820906,4.14794034 8.79559195,4.20904571 C8.88108953,4.26976677 8.96582031,4.33087214 9.02716387,4.36738164 C9.10000933,4.41618908 9.14870078,4.45269858 9.18512351,4.48959239 L9.20927754,4.52610189 L9.24608367,4.55031345 C9.24608367,4.56261139 9.24608367,4.57490933 9.22154625,4.59912089 C9.20927754,4.61141883 9.18512351,4.63563039 9.16058609,4.64792833 C9.12454676,4.66022626 9.08774062,4.6725242 9.0632032,4.69673576 C9.02716387,4.7090337 8.99035773,4.72094733 8.953935,4.73324526 C8.92978098,4.73324526 8.91751226,4.7455432 8.89297484,4.7455432 C8.88108953,4.7455432 8.85655211,4.7455432 8.8442834,4.75745683 L8.82012937,4.75745683 L8.79559195,4.75745683 L8.77143793,4.75745683 L8.74690051,4.75745683 L8.46740395,4.76975476 C8.4187125,4.76975476 8.35813574,4.7455432 8.3094443,4.7090337 C8.24810075,4.68443783 8.1994093,4.63563039 8.13883254,4.56261139 C8.07787239,4.50150602 8.02918094,4.44078495 7.96860418,4.36738164 C7.90764403,4.29436265 7.84706727,4.20904571 7.78572372,4.12334446 C7.7738384,4.0991329 7.74968438,4.07453703 7.72514696,4.05032546 C7.71326164,4.0261139 7.70099293,4.00151803 7.67645551,3.98922009 C7.6641868,3.96500853 7.64003278,3.94041265 7.62776407,3.91620109 C7.60361004,3.89160522 7.59172473,3.86739365 7.56718731,3.84318209 C7.5549186,3.83088415 7.54303329,3.81858622 7.53038118,3.79437465 C7.53038118,3.78207672 7.50622715,3.77016309 7.49434184,3.75786516 C7.48168973,3.77016309 7.46980442,3.79437465 7.45753571,3.81858622 C7.4456504,3.84318209 7.42111297,3.85548003 7.40884426,3.87969159 C7.38430684,3.91620109 7.36015282,3.95271059 7.34826751,3.98922009 L7.27503864,4.0991329 C7.23861591,4.14794034 7.21407848,4.18444984 7.18992446,4.23325727 C7.16538704,4.26976677 7.14123302,4.30666058 7.1289643,4.35508371 L7.10481028,4.39197752 L7.09254157,4.41618908 C7.03196481,4.50150602 6.98327337,4.58682295 6.93458192,4.6725242 C6.87323837,4.7455432 6.83719903,4.83086013 6.78850759,4.90387913 C6.73981614,4.98919607 6.6911247,5.05030144 6.66658728,5.09910888 C6.63054794,5.16021425 6.60601052,5.18442582 6.58185649,5.20902169 L6.54505036,5.23323325 L6.52089634,5.24553119 L6.22874767,5.24553119 L6.20421025,5.23323325 L6.18005622,5.23323325 C6.1555188,5.22093532 6.14363349,5.20902169 6.11947946,5.19672375 C6.10682736,5.18442582 6.09494204,5.16021425 6.08267333,5.14791632 C6.05851931,5.13561838 6.0462506,5.12332044 6.03398189,5.11140682 C6.02209657,5.09910888 6.02209657,5.08681094 6.01021126,5.06259938 L5.99755915,5.02608988 L5.99755915,5.00149401 L5.99755915,4.96498451 L6.01021126,4.94038863 C6.0462506,4.8915812 6.08267333,4.83086013 6.11947946,4.7820527 C6.16817091,4.72094733 6.21686235,4.66022626 6.27743911,4.58682295 C6.32613056,4.52610189 6.38709071,4.45269858 6.44766747,4.37967958 C6.50862763,4.30666058 6.56958778,4.23325727 6.63054794,4.16023827 L6.66658728,4.12334446 L6.6911247,4.08683496 C6.73981614,4.0261139 6.8007763,3.96500853 6.84908435,3.91620109 C6.89815919,3.85548003 6.94646724,3.79437465 6.98327337,3.74556722 C7.04385013,3.68446185 7.09254157,3.63565441 7.1289643,3.58684697 C7.17765575,3.53803954 7.21407848,3.48961641 7.23861591,3.44080897 C7.09254157,3.26979079 6.95873595,3.13566642 6.82531372,3.01383998 C6.6911247,2.89201355 6.56958778,2.80669661 6.47220489,2.74559124 C6.36255329,2.68448586 6.2655538,2.6237648 6.19232493,2.57495737 C6.13136478,2.52614993 6.08267333,2.47734249 6.0462506,2.44083299 L6.02209657,2.39202556 L6.01021126,2.35513175 L6.01021126,2.34321812 L6.01021126,2.33092018 C6.02209657,2.31862225 6.03398189,2.30632431 6.0462506,2.30632431 C6.05851931,2.29441068 6.07078802,2.29441068 6.09494204,2.28211275 C6.11947946,2.28211275 6.14363349,2.26981481 6.16817091,2.26981481 L6.25290169,2.26981481 L6.53316505,2.26981481 L6.55731907,2.26981481 L6.58185649,2.26981481 C6.59374181,2.26981481 6.60601052,2.28211275 6.61789583,2.28211275 L6.64243325,2.28211275 L6.66658728,2.28211275 L6.70339341,2.28211275 L6.72793083,2.28211275 L6.75208485,2.28211275 C6.8007763,2.29441068 6.83719903,2.29441068 6.88589048,2.30632431 C6.92192981,2.31862225 6.97062126,2.33092018 7.00742739,2.34321812 C7.04385013,2.36742968 7.08065626,2.37972762 7.11669559,2.39202556 C7.14123302,2.40393918 7.16538704,2.41623712 7.18992446,2.44083299 C7.23861591,2.48925612 7.28730735,2.52614993 7.32373008,2.57495737 C7.36015282,2.61146687 7.39695895,2.64797636 7.42111297,2.68448586 C7.4456504,2.70908174 7.46980442,2.74559124 7.50622715,2.78210074 C7.53038118,2.81861024 7.5549186,2.84320611 7.57907262,2.86741767 L7.59172473,2.89201355 L7.60361004,2.90431148 C7.61587875,2.91622511 7.62776407,2.94043667 7.64003278,2.95311892 C7.65230149,2.96503255 7.65230149,2.97733048 7.6641868,2.98962842 L7.67645551,2.98962842 L7.67645551,2.97733048 C7.71326164,2.94043667 7.74968438,2.90431148 7.78572372,2.86741767 C7.82252985,2.83090817 7.85895258,2.79439867 7.89537532,2.74559124 C7.93179805,2.7332933 7.95633547,2.70908174 7.9804895,2.67257224 C8.01729563,2.64797636 8.04144965,2.6237648 8.07787239,2.59916893 C8.10240981,2.57495737 8.13883254,2.55036149 8.16336996,2.52614993 C8.1994093,2.48925612 8.22394672,2.46504456 8.26075285,2.45274662 C8.28490688,2.42853506 8.29679219,2.41623712 8.32132961,2.40393918 C8.33359832,2.39202556 8.35813574,2.37972762 8.37002106,2.37972762 C8.38228977,2.36742968 8.40682719,2.34321812 8.4187125,2.34321812 C8.44286653,2.33092018 8.45513524,2.31862225 8.47967266,2.30632431 C8.50382668,2.29441068 8.51609539,2.28211275 8.5283641,2.28211275 C8.55213473,2.26981481 8.56478684,2.25751687 8.58894086,2.24560325 C8.60082617,2.24560325 8.61347828,2.23330531 8.62536359,2.23330531 C8.64951762,2.22100737 8.66216973,2.22100737 8.68632375,2.20909375 L8.68632375,2.20909375 Z M0.888024606,4.33087214 L1.05825296,0.757937213 C1.04598425,0.757937213 1.03409894,0.757937213 1.02183023,0.769850839 L0.997292809,0.769850839 C0.985407496,0.769850839 0.985407496,0.782148776 0.973138785,0.782148776 C0.961253472,0.782148776 0.948601364,0.782148776 0.936716051,0.794446713 L0.92444734,0.794446713 L0.912562027,0.794446713 C0.875755895,0.80674465 0.827447847,0.830956213 0.802910426,0.843254149 C0.766487692,0.855552086 0.730064957,0.867465712 0.693258826,0.879763649 C0.657219488,0.892061586 0.632682067,0.903975212 0.608528043,0.903975212 C0.583990622,0.916273149 0.571721912,0.928571085 0.559836598,0.928571085 L0.547184491,0.940869022 L0.535299177,0.940869022 L0.523030467,0.940869022 L0.243533904,0.940869022 L0.230881797,0.940869022 L0.206727773,0.940869022 L0.170305038,0.928571085 C0.146151014,0.928571085 0.121613593,0.916273149 0.109344883,0.892061586 C0.0848074617,0.879763649 0.0606534378,0.867465712 0.0487681244,0.843254149 C0.0361160167,0.818658276 0.0242307033,0.80674465 0.0119619928,0.782148776 C0.0119619928,0.757937213 7.6679441e-05,0.73334134 7.6679441e-05,0.709129777 L7.6679441e-05,0.69683184 L7.6679441e-05,0.684533903 L7.6679441e-05,0.672235967 L7.6679441e-05,0.66032234 C0.0361160167,0.623812841 0.0729221483,0.599216967 0.121613593,0.575005404 C0.170305038,0.550409531 0.230881797,0.538111594 0.304110663,0.526197968 L0.523030467,0.489304158 C0.595875936,0.477390532 0.681373512,0.465092595 0.754602378,0.465092595 L0.766487692,0.465092595 L0.778756402,0.465092595 L0.851601871,0.465092595 C0.875755895,0.452794658 0.899909919,0.452794658 0.92444734,0.452794658 C0.948601364,0.440496721 0.973138785,0.440496721 0.997292809,0.440496721 C1.00994492,0.440496721 1.03409894,0.428583095 1.05825296,0.428583095 L1.10694441,0.416285158 L1.10694441,0.392073595 L1.10694441,0.355564096 L1.10694441,0.319054596 L1.0946757,0.282160786 L1.0946757,0.257949223 L1.0946757,0.23335335 L1.0946757,0.19684385 L1.0946757,0.172632287 C1.0946757,0.16033435 1.0946757,0.148036413 1.10694441,0.135738477 L1.10694441,0.099228977 L1.14336714,0.0750174141 L1.15563585,0.0750174141 C1.16790457,0.0750174141 1.16790457,0.0750174141 1.18017328,0.0627194773 L1.19205859,0.0627194773 L1.21659601,0.0627194773 L1.49647597,0.0627194773 C1.50836128,0.0627194773 1.52101339,0.0750174141 1.5328987,0.0750174141 C1.54516741,0.0750174141 1.56970484,0.0750174141 1.58159015,0.0873153508 C1.60574417,0.0873153508 1.61801288,0.099228977 1.6425503,0.099228977 C1.66670433,0.111526914 1.67897304,0.12382485 1.70312706,0.135738477 C1.71501238,0.148036413 1.72766448,0.16033435 1.7395498,0.172632287 C1.76370382,0.184545913 1.77635593,0.209141787 1.80050995,0.23335335 L1.81239527,0.245651286 C1.82504737,0.257949223 1.82504737,0.27024716 1.83693269,0.27024716 C1.83693269,0.282160786 1.8492014,0.282160786 1.8492014,0.294458723 C1.86108671,0.294458723 1.86108671,0.306756659 1.87335542,0.319054596 C1.89789284,0.306756659 1.93431558,0.306756659 1.97073831,0.306756659 C2.00716105,0.306756659 2.05585249,0.294458723 2.09265862,0.294458723 C2.20192683,0.282160786 2.31157843,0.282160786 2.42084663,0.27024716 L2.77357206,0.27024716 L3.05383542,0.27024716 L3.08987475,0.27024716 L3.12668088,0.27024716 L3.47940631,0.27024716 C3.60094323,0.27024716 3.71021143,0.282160786 3.82024643,0.282160786 C3.88082319,0.294458723 3.92951463,0.294458723 3.97820608,0.294458723 C4.02689752,0.306756659 4.07558897,0.306756659 4.12428041,0.306756659 L4.24581732,0.306756659 C4.28224006,0.319054596 4.31866279,0.319054596 4.34320021,0.319054596 C4.36735424,0.330968222 4.39189166,0.330968222 4.41604568,0.330968222 C4.4405831,0.330968222 4.45246842,0.343266159 4.47700584,0.343266159 C4.50115986,0.343266159 4.52531389,0.355564096 4.54985131,0.355564096 C4.57400533,0.355564096 4.58665744,0.355564096 4.61081146,0.367477722 C4.70819435,0.379775659 4.79330853,0.416285158 4.87842271,0.452794658 C4.96353689,0.489304158 5.03638236,0.538111594 5.12187994,0.586919031 C5.1951088,0.648024404 5.25568556,0.709129777 5.2917249,0.794446713 C5.32853103,0.879763649 5.35306845,0.977378522 5.35306845,1.08729133 L5.35306845,1.11150289 L5.35306845,1.12380083 L5.35306845,1.14801239 L5.35306845,1.16031033 C5.31626232,1.3674537 5.25568556,1.55038551 5.15830267,1.70910576 C5.04903447,1.86744169 4.91484545,2.00156607 4.74461709,2.09918094 C4.57400533,2.20909375 4.40377697,2.29441068 4.2212799,2.36742968 C4.05105154,2.42853506 3.85628576,2.48925612 3.67417209,2.52614993 C3.58867452,2.53806356 3.51582905,2.55036149 3.44260018,2.56265943 C3.3578694,2.57495737 3.28464053,2.57495737 3.21179506,2.58687099 C3.1385662,2.59916893 3.06572073,2.59916893 2.99249186,2.59916893 L2.78584077,2.59916893 C2.83453221,2.64797636 2.89549237,2.70908174 2.96833784,2.7698028 C3.02929799,2.84320611 3.11441217,2.91622511 3.19952635,3.00192636 C3.29690924,3.08685898 3.39429213,3.17217592 3.49129163,3.25787716 C3.58867452,3.3431941 3.69832612,3.42851104 3.80759432,3.51382797 C3.83213174,3.53803954 3.85628576,3.56263541 3.8930919,3.58684697 C3.91762932,3.61144285 3.94178334,3.63565441 3.97820608,3.66025028 C3.99047479,3.67254822 4.0023601,3.68446185 4.01462881,3.69675978 C4.02689752,3.70905772 4.05105154,3.72135566 4.06332026,3.73326928 C4.07558897,3.74556722 4.08785768,3.75786516 4.1120117,3.77016309 C4.12428041,3.78207672 4.13654912,3.79437465 4.14843443,3.79437465 C4.28224006,3.90390315 4.41604568,4.00151803 4.54985131,4.08683496 C4.67138822,4.18444984 4.79330853,4.26976677 4.91484545,4.34317008 C5.03638236,4.41618908 5.14603396,4.47729445 5.24341685,4.51380395 C5.34041634,4.55031345 5.41364521,4.56261139 5.47460537,4.56261139 L5.1951088,4.57490933 C5.1951088,4.56261139 5.20699412,4.56261139 5.20699412,4.56261139 L5.21887943,4.56261139 L5.23114814,4.56261139 L5.24341685,4.56261139 L5.2917249,4.55031345 L5.57198826,4.55031345 C5.58387357,4.55031345 5.59614228,4.56261139 5.60841099,4.57490933 C5.60841099,4.58682295 5.60841099,4.61141883 5.59614228,4.62371676 C5.58387357,4.64792833 5.57198826,4.6725242 5.55971955,4.69673576 C5.53518212,4.72094733 5.5110281,4.7455432 5.48649068,4.76975476 C5.47460537,4.7820527 5.46233666,4.79435064 5.45045134,4.80626426 C5.43779923,4.8185622 5.42591392,4.83086013 5.4017599,4.84315807 C5.4017599,4.8550717 5.38910779,4.8550717 5.37722248,4.86736963 C5.36495377,4.86736963 5.36495377,4.86736963 5.35306845,4.87966757 C5.35306845,4.8915812 5.34041634,4.8915812 5.32853103,4.90387913 C5.32853103,4.90387913 5.31626232,4.91617707 5.30437701,4.91617707 C5.30437701,4.92847501 5.2917249,4.92847501 5.27983959,4.92847501 C5.26757088,4.94038863 5.25568556,4.94038863 5.25568556,4.94038863 C5.24341685,4.94038863 5.23114814,4.95268657 5.21887943,4.95268657 C5.21887943,4.95268657 5.20699412,4.96498451 5.1951088,4.96498451 C5.17018799,4.97728244 5.15830267,4.98919607 5.14603396,4.98919607 C5.13376525,4.98919607 5.12187994,5.00149401 5.09772591,5.00149401 L4.81746256,5.00149401 L4.80557724,5.00149401 L4.79330853,5.00149401 L4.78103982,5.00149401 C4.69592564,4.94038863 4.59854275,4.86736963 4.47700584,4.7820527 C4.36735424,4.7090337 4.23393201,4.61141883 4.07558897,4.50150602 C3.91762932,4.40389114 3.77155498,4.28206471 3.60094323,4.16023827 C3.44260018,4.03802753 3.28464053,3.91620109 3.11441217,3.78207672 C3.10252686,3.77016309 3.07798944,3.75786516 3.06572073,3.74556722 C3.05383542,3.73326928 3.04118331,3.72135566 3.02929799,3.70905772 C3.01702928,3.70905772 3.00514397,3.69675978 2.99249186,3.68446185 C2.98060655,3.67254822 2.96833784,3.66025028 2.94380042,3.64795235 C2.9319151,3.63565441 2.91964639,3.63565441 2.90776108,3.62374078 C2.89549237,3.61144285 2.88322366,3.59914491 2.87095495,3.57493335 C2.85906964,3.57493335 2.84680092,3.56263541 2.8222635,3.55033747 C2.81037819,3.53803954 2.79810948,3.52612591 2.78584077,3.51382797 C2.67618917,3.4162131 2.56692097,3.33089616 2.45765276,3.24557923 C2.34800116,3.16026229 2.23873296,3.06264742 2.14135007,2.97733048 C2.03169847,2.89201355 1.93431558,2.80669661 1.8492014,2.7332933 C1.76370382,2.64797636 1.67897304,2.57495737 1.61801288,2.50155406 C1.6425503,2.46504456 1.67897304,2.44083299 1.71501238,2.41623712 C1.75181851,2.39202556 1.78824124,2.37972762 1.81239527,2.36742968 C1.86108671,2.35513175 1.89789284,2.35513175 1.92204687,2.34321812 C1.9584696,2.34321812 1.99527573,2.33092018 2.03169847,2.33092018 L2.32346374,2.33092018 L2.34800116,2.33092018 L2.3844239,2.33092018 C2.39669261,2.34321812 2.40896132,2.34321812 2.42084663,2.34321812 L2.45765276,2.34321812 C2.48180679,2.34321812 2.50596081,2.34321812 2.53049823,2.35513175 L2.61561241,2.35513175 C2.63976643,2.35513175 2.66430386,2.36742968 2.68845788,2.36742968 C2.72488061,2.37972762 2.74941803,2.37972762 2.77357206,2.37972762 L2.79810948,2.37972762 L2.81037819,2.37972762 L2.8222635,2.37972762 L2.83453221,2.37972762 L2.87095495,2.37972762 L2.90776108,2.37972762 C2.91964639,2.37972762 2.9319151,2.37972762 2.94380042,2.36742968 L2.99249186,2.36742968 C3.04118331,2.36742968 3.10252686,2.35513175 3.16310362,2.35513175 C3.21179506,2.34321812 3.27275522,2.33092018 3.33333198,2.31862225 C3.43071487,2.29441068 3.53998307,2.26981481 3.63736596,2.23330531 C3.73474885,2.18449787 3.83213174,2.14798837 3.91762932,2.086883 C4.01462881,2.03845988 4.09974299,1.96505657 4.18524057,1.87973963 C4.26997135,1.80672063 4.3309315,1.70910576 4.39189166,1.59919295 C4.41604568,1.57498138 4.42831439,1.53808757 4.4405831,1.51387601 C4.46473713,1.47736651 4.46473713,1.45277064 4.47700584,1.41626114 C4.48927455,1.39204958 4.48927455,1.3674537 4.48927455,1.3309442 C4.48927455,1.30634833 4.50115986,1.28213677 4.50115986,1.24562727 C4.50115986,1.14801239 4.46473713,1.05039752 4.41604568,0.977378522 C4.36735424,0.892061586 4.29450877,0.818658276 4.19712588,0.757937213 C4.08785768,0.709129777 3.97820608,0.66032234 3.86893787,0.611514904 C3.75890287,0.575005404 3.63736596,0.538111594 3.51582905,0.501602094 C3.45486889,0.489304158 3.38202342,0.477390532 3.32144666,0.477390532 C3.2482178,0.465092595 3.18725764,0.452794658 3.11441217,0.452794658 C3.08987475,0.440496721 3.06572073,0.440496721 3.02929799,0.440496721 L2.94380042,0.440496721 L2.9319151,0.440496721 L2.89549237,0.440496721 L2.85906964,0.440496721 L2.8222635,0.440496721 L2.79810948,0.440496721 C2.73714932,0.452794658 2.67618917,0.452794658 2.62749772,0.465092595 C2.57880628,0.465092595 2.53049823,0.477390532 2.46953808,0.489304158 C2.42084663,0.489304158 2.37215519,0.501602094 2.32346374,0.501602094 C2.2747723,0.513900031 2.22608085,0.513900031 2.19004151,0.526197968 C2.15323538,0.538111594 2.11681265,0.538111594 2.09265862,0.550409531 C2.05585249,0.550409531 2.01942976,0.562707468 1.99527573,0.575005404 C1.97073831,0.575005404 1.93431558,0.575005404 1.90977816,0.586919031 C1.88562413,0.586919031 1.86108671,0.599216967 1.83693269,0.599216967 C1.82504737,0.80674465 1.81239527,1.00159008 1.80050995,1.20911777 C1.80050995,1.41626114 1.78824124,1.61149088 1.77635593,1.80672063 C1.77635593,2.013864 1.76370382,2.20909375 1.76370382,2.39202556 C1.75181851,2.58687099 1.75181851,2.7698028 1.75181851,2.95311892 L1.75181851,3.3797036 C1.75181851,3.51382797 1.75181851,3.66025028 1.76370382,3.79437465 C1.76370382,3.92849903 1.77635593,4.05032546 1.77635593,4.1721519 C1.77635593,4.30666058 1.78824124,4.42848702 1.78824124,4.55031345 C1.78824124,4.55031345 1.77635593,4.56261139 1.76370382,4.57490933 C1.75181851,4.57490933 1.7395498,4.58682295 1.7395498,4.58682295 C1.71501238,4.59912089 1.70312706,4.59912089 1.69085835,4.59912089 C1.67897304,4.61141883 1.66670433,4.61141883 1.65443562,4.61141883 L1.36228695,4.61141883 L1.35040163,4.61141883 L1.32624761,4.61141883 C1.32624761,4.59912089 1.3139789,4.59912089 1.3139789,4.59912089 L1.28944148,4.59912089 C1.27755617,4.59912089 1.26528746,4.58682295 1.25301874,4.58682295 C1.24075003,4.58682295 1.22886472,4.58682295 1.21659601,4.57490933 C1.18017328,4.57490933 1.15563585,4.56261139 1.13148183,4.55031345 C1.0946757,4.53839983 1.07052168,4.52610189 1.04598425,4.51380395 C1.02183023,4.50150602 0.997292809,4.48959239 0.973138785,4.46499652 C0.961253472,4.45269858 0.936716051,4.42848702 0.92444734,4.41618908 L0.899909919,4.37967958 L0.888024606,4.34317008 L0.888024606,4.33087214 Z"/>
      <polygon fill="#231F20" points="99.263 4.28 99.263 4.721 98.521 4.721 98.521 6.77 97.998 6.77 97.998 4.721 97.251 4.721 97.251 4.28"/>
      <path fill="#231F20" d="M101.213872,4.28002786 L101.960729,4.28002786 L101.960729,6.76959143 L101.477265,6.76959143 L101.477265,5.08554272 C101.477265,5.03711959 101.477649,4.96948094 101.478799,4.88185814 C101.479949,4.79500396 101.480333,4.72774962 101.480333,4.68047943 L101.009904,6.76959143 L100.505354,6.76959143 L100.038376,4.68047943 C100.038376,4.72774962 100.039143,4.79500396 100.039909,4.88185814 C100.04106,4.96948094 100.041443,5.03711959 100.041443,5.08554272 L100.041443,6.76959143 L99.5583624,6.76959143 L99.5583624,4.28002786 L100.313272,4.28002786 L100.765297,6.23732136 L101.213872,4.28002786 Z"/>
    </g>
    <path fill="#3D3D3D" fill-rule="nonzero" d="M116.528,18 L111.136,18 L111.136,7.328 L116.384,7.328 C118.352,7.328 119.424,8.544 119.424,10.048 C119.424,11.376 118.56,12.288 117.568,12.496 C118.72,12.672 119.632,13.808 119.632,15.104 C119.632,16.768 118.544,18 116.528,18 Z M116.016,11.728 C116.96,11.728 117.504,11.168 117.504,10.352 C117.504,9.568 116.96,8.976 116.016,8.976 L113.008,8.976 L113.008,11.728 L116.016,11.728 Z M116.096,16.352 C117.104,16.352 117.712,15.792 117.712,14.864 C117.712,14.064 117.152,13.376 116.096,13.376 L113.008,13.376 L113.008,16.352 L116.096,16.352 Z M124.056,18.192 C121.72,18.192 120.008,16.576 120.008,14.128 C120.008,11.888 121.64,10.08 123.928,10.08 C126.248,10.08 127.72,11.84 127.72,14.272 L127.72,14.688 L121.768,14.688 C121.896,15.84 122.76,16.816 124.216,16.816 C124.984,16.816 125.864,16.512 126.424,15.952 L127.192,17.056 C126.408,17.792 125.272,18.192 124.056,18.192 Z M126.104,13.488 C126.056,12.576 125.432,11.456 123.912,11.456 C122.488,11.456 121.816,12.56 121.752,13.488 L126.104,13.488 Z M130.72,18.192 C129.408,18.192 128.736,17.488 128.736,16.192 L128.736,11.728 L127.456,11.728 L127.456,10.272 L128.736,10.272 L128.736,8.16 L130.416,8.16 L130.416,10.272 L131.984,10.272 L131.984,11.728 L130.416,11.728 L130.416,15.776 C130.416,16.304 130.672,16.704 131.152,16.704 C131.472,16.704 131.76,16.56 131.888,16.416 L132.288,17.696 C131.984,17.968 131.488,18.192 130.72,18.192 Z M134.824,18.192 C133.512,18.192 132.84,17.488 132.84,16.192 L132.84,11.728 L131.56,11.728 L131.56,10.272 L132.84,10.272 L132.84,8.16 L134.52,8.16 L134.52,10.272 L136.088,10.272 L136.088,11.728 L134.52,11.728 L134.52,15.776 C134.52,16.304 134.776,16.704 135.256,16.704 C135.576,16.704 135.864,16.56 135.992,16.416 L136.392,17.696 C136.088,17.968 135.592,18.192 134.824,18.192 Z M140.176,18.192 C137.84,18.192 136.128,16.576 136.128,14.128 C136.128,11.888 137.76,10.08 140.048,10.08 C142.368,10.08 143.84,11.84 143.84,14.272 L143.84,14.688 L137.888,14.688 C138.016,15.84 138.88,16.816 140.336,16.816 C141.104,16.816 141.984,16.512 142.544,15.952 L143.312,17.056 C142.528,17.792 141.392,18.192 140.176,18.192 Z M142.224,13.488 C142.176,12.576 141.552,11.456 140.032,11.456 C138.608,11.456 137.936,12.56 137.872,13.488 L142.224,13.488 Z M146.184,18 L144.504,18 L144.504,10.272 L146.184,10.272 L146.184,11.392 C146.776,10.656 147.704,10.08 148.696,10.08 L148.696,11.744 C148.552,11.712 148.392,11.696 148.184,11.696 C147.464,11.696 146.52,12.176 146.184,12.736 L146.184,18 Z M159.096,18 L157.416,18 L157.416,13.136 C157.416,11.92 156.808,11.568 155.864,11.568 C155,11.568 154.264,12.08 153.88,12.592 L153.88,18 L152.2,18 L152.2,7.328 L153.88,7.328 L153.88,11.312 C154.392,10.704 155.384,10.08 156.6,10.08 C158.264,10.08 159.096,10.944 159.096,12.528 L159.096,18 Z M163.856,18.192 C161.52,18.192 159.808,16.576 159.808,14.128 C159.808,11.888 161.44,10.08 163.728,10.08 C166.048,10.08 167.52,11.84 167.52,14.272 L167.52,14.688 L161.568,14.688 C161.696,15.84 162.56,16.816 164.016,16.816 C164.784,16.816 165.664,16.512 166.224,15.952 L166.992,17.056 C166.208,17.792 165.072,18.192 163.856,18.192 Z M165.904,13.488 C165.856,12.576 165.232,11.456 163.712,11.456 C162.288,11.456 161.616,12.56 161.552,13.488 L165.904,13.488 Z M174.6,18 L172.92,18 L172.92,17.152 C172.344,17.824 171.432,18.192 170.408,18.192 C169.16,18.192 167.736,17.328 167.736,15.632 C167.736,13.84 169.144,13.104 170.408,13.104 C171.464,13.104 172.344,13.44 172.92,14.096 L172.92,12.944 C172.92,12.048 172.168,11.504 171.112,11.504 C170.248,11.504 169.48,11.824 168.824,12.496 L168.12,11.328 C169.016,10.464 170.136,10.08 171.368,10.08 C173.096,10.08 174.6,10.8 174.6,12.864 L174.6,18 Z M171.08,17.04 C171.8,17.04 172.52,16.768 172.92,16.24 L172.92,15.056 C172.52,14.528 171.8,14.256 171.08,14.256 C170.136,14.256 169.416,14.816 169.416,15.648 C169.416,16.496 170.136,17.04 171.08,17.04 Z M177.456,18 L175.776,18 L175.776,7.328 L177.456,7.328 L177.456,18 Z M180.968,18.192 C179.656,18.192 178.984,17.488 178.984,16.192 L178.984,11.728 L177.704,11.728 L177.704,10.272 L178.984,10.272 L178.984,8.16 L180.664,8.16 L180.664,10.272 L182.232,10.272 L182.232,11.728 L180.664,11.728 L180.664,15.776 C180.664,16.304 180.92,16.704 181.4,16.704 C181.72,16.704 182.008,16.56 182.136,16.416 L182.536,17.696 C182.232,17.968 181.736,18.192 180.968,18.192 Z M189.648,18 L187.968,18 L187.968,13.136 C187.968,11.92 187.36,11.568 186.416,11.568 C185.552,11.568 184.816,12.08 184.432,12.592 L184.432,18 L182.752,18 L182.752,7.328 L184.432,7.328 L184.432,11.312 C184.944,10.704 185.936,10.08 187.152,10.08 C188.816,10.08 189.648,10.944 189.648,12.528 L189.648,18 Z M192.424,14.72 L190.968,14.72 L190.664,7.328 L192.712,7.328 L192.424,14.72 Z M191.704,18.16 C191.096,18.16 190.584,17.648 190.584,17.04 C190.584,16.448 191.096,15.936 191.704,15.936 C192.312,15.936 192.808,16.448 192.808,17.04 C192.808,17.648 192.312,18.16 191.704,18.16 Z M113.008,32 L111.136,32 L111.136,21.328 L115.84,21.328 C118.08,21.328 119.312,22.848 119.312,24.672 C119.312,26.48 118.064,28 115.84,28 L113.008,28 L113.008,32 Z M115.584,26.352 C116.64,26.352 117.392,25.68 117.392,24.672 C117.392,23.648 116.64,22.976 115.584,22.976 L113.008,22.976 L113.008,26.352 L115.584,26.352 Z M123.096,32.192 C120.632,32.192 119.128,30.336 119.128,28.128 C119.128,25.904 120.632,24.08 123.096,24.08 C125.56,24.08 127.064,25.904 127.064,28.128 C127.064,30.336 125.56,32.192 123.096,32.192 Z M123.096,30.704 C124.536,30.704 125.32,29.504 125.32,28.128 C125.32,26.768 124.536,25.568 123.096,25.568 C121.672,25.568 120.872,26.768 120.872,28.128 C120.872,29.504 121.672,30.704 123.096,30.704 Z M136.288,32 L134.528,32 L132.72,26.336 L130.928,32 L129.168,32 L126.768,24.272 L128.512,24.272 L130.144,29.888 L131.984,24.272 L133.472,24.272 L135.296,29.888 L136.928,24.272 L138.688,24.272 L136.288,32 Z M142.44,32.192 C140.104,32.192 138.392,30.576 138.392,28.128 C138.392,25.888 140.024,24.08 142.312,24.08 C144.632,24.08 146.104,25.84 146.104,28.272 L146.104,28.688 L140.152,28.688 C140.28,29.84 141.144,30.816 142.6,30.816 C143.368,30.816 144.248,30.512 144.808,29.952 L145.576,31.056 C144.792,31.792 143.656,32.192 142.44,32.192 Z M144.488,27.488 C144.44,26.576 143.816,25.456 142.296,25.456 C140.872,25.456 140.2,26.56 140.136,27.488 L144.488,27.488 Z M148.448,32 L146.768,32 L146.768,24.272 L148.448,24.272 L148.448,25.392 C149.04,24.656 149.968,24.08 150.96,24.08 L150.96,25.744 C150.816,25.712 150.656,25.696 150.448,25.696 C149.728,25.696 148.784,26.176 148.448,26.736 L148.448,32 Z M154.904,32.192 C152.568,32.192 150.856,30.576 150.856,28.128 C150.856,25.888 152.488,24.08 154.776,24.08 C157.096,24.08 158.568,25.84 158.568,28.272 L158.568,28.688 L152.616,28.688 C152.744,29.84 153.608,30.816 155.064,30.816 C155.832,30.816 156.712,30.512 157.272,29.952 L158.04,31.056 C157.256,31.792 156.12,32.192 154.904,32.192 Z M156.952,27.488 C156.904,26.576 156.28,25.456 154.76,25.456 C153.336,25.456 152.664,26.56 152.6,27.488 L156.952,27.488 Z M166.352,32 L164.672,32 L164.672,30.944 C164.08,31.712 163.2,32.192 162.192,32.192 C160.224,32.192 158.768,30.688 158.768,28.128 C158.768,25.632 160.208,24.08 162.192,24.08 C163.168,24.08 164.064,24.512 164.672,25.344 L164.672,21.328 L166.352,21.328 L166.352,32 Z M162.688,30.704 C163.472,30.704 164.304,30.24 164.672,29.664 L164.672,26.608 C164.304,26.032 163.472,25.568 162.688,25.568 C161.344,25.568 160.496,26.64 160.496,28.128 C160.496,29.632 161.344,30.704 162.688,30.704 Z M172.336,29.68 C172.72,30.256 173.536,30.704 174.336,30.704 C175.664,30.704 176.512,29.632 176.512,28.128 C176.512,26.64 175.664,25.568 174.336,25.568 C173.536,25.568 172.72,26.032 172.336,26.608 L172.336,29.68 Z M172.336,32 L170.656,32 L170.656,21.328 L172.336,21.328 L172.336,25.344 C172.96,24.512 173.856,24.08 174.816,24.08 C176.816,24.08 178.256,25.632 178.256,28.128 C178.256,30.688 176.8,32.192 174.816,32.192 C173.824,32.192 172.928,31.712 172.336,30.944 L172.336,32 Z M178.632,35.024 L178.872,33.52 C179.048,33.6 179.32,33.648 179.512,33.648 C180.056,33.648 180.408,33.488 180.632,32.976 L181.016,32.096 L177.832,24.272 L179.64,24.272 L181.896,30.064 L184.152,24.272 L185.944,24.272 L182.216,33.392 C181.688,34.704 180.776,35.12 179.576,35.136 C179.336,35.136 178.856,35.088 178.632,35.024 Z M191.048,32 L189.176,32 L189.176,21.328 L191.048,21.328 L191.048,32 Z M199.184,32 L197.504,32 L197.504,27.168 C197.504,25.952 196.88,25.568 195.936,25.568 C195.088,25.568 194.352,26.08 193.952,26.592 L193.952,32 L192.272,32 L192.272,24.272 L193.952,24.272 L193.952,25.312 C194.464,24.704 195.472,24.08 196.688,24.08 C198.352,24.08 199.184,24.976 199.184,26.56 L199.184,32 Z M202.456,32 L200.776,32 L200.776,25.728 L199.496,25.728 L199.496,24.272 L200.776,24.272 L200.776,23.84 C200.776,22.16 201.752,21.168 203.208,21.168 C203.912,21.168 204.6,21.344 205.064,21.84 L204.408,22.88 C204.184,22.672 203.896,22.544 203.528,22.544 C202.856,22.544 202.456,22.976 202.456,23.84 L202.456,24.272 L204.024,24.272 L204.024,25.728 L202.456,25.728 L202.456,32 Z M207.808,32.192 C205.344,32.192 203.84,30.336 203.84,28.128 C203.84,25.904 205.344,24.08 207.808,24.08 C210.272,24.08 211.776,25.904 211.776,28.128 C211.776,30.336 210.272,32.192 207.808,32.192 Z M207.808,30.704 C209.248,30.704 210.032,29.504 210.032,28.128 C210.032,26.768 209.248,25.568 207.808,25.568 C206.384,25.568 205.584,26.768 205.584,28.128 C205.584,29.504 206.384,30.704 207.808,30.704 Z M214.168,32 L212.488,32 L212.488,24.272 L214.168,24.272 L214.168,25.392 C214.76,24.656 215.688,24.08 216.68,24.08 L216.68,25.744 C216.536,25.712 216.376,25.696 216.168,25.696 C215.448,25.696 214.504,26.176 214.168,26.736 L214.168,32 Z M228.208,32 L226.528,32 L226.528,26.96 C226.528,26.128 226.16,25.568 225.248,25.568 C224.496,25.568 223.792,26.08 223.456,26.592 L223.456,32 L221.776,32 L221.776,26.96 C221.776,26.128 221.424,25.568 220.512,25.568 C219.76,25.568 219.072,26.096 218.72,26.592 L218.72,32 L217.04,32 L217.04,24.272 L218.72,24.272 L218.72,25.312 C219.056,24.848 220.064,24.08 221.248,24.08 C222.4,24.08 223.104,24.656 223.36,25.488 C223.792,24.8 224.816,24.08 225.984,24.08 C227.392,24.08 228.208,24.848 228.208,26.416 L228.208,32 Z M235.8,32 L234.12,32 L234.12,31.152 C233.544,31.824 232.632,32.192 231.608,32.192 C230.36,32.192 228.936,31.328 228.936,29.632 C228.936,27.84 230.344,27.104 231.608,27.104 C232.664,27.104 233.544,27.44 234.12,28.096 L234.12,26.944 C234.12,26.048 233.368,25.504 232.312,25.504 C231.448,25.504 230.68,25.824 230.024,26.496 L229.32,25.328 C230.216,24.464 231.336,24.08 232.568,24.08 C234.296,24.08 235.8,24.8 235.8,26.864 L235.8,32 Z M232.28,31.04 C233,31.04 233.72,30.768 234.12,30.24 L234.12,29.056 C233.72,28.528 233,28.256 232.28,28.256 C231.336,28.256 230.616,28.816 230.616,29.648 C230.616,30.496 231.336,31.04 232.28,31.04 Z M239.312,32.192 C238,32.192 237.328,31.488 237.328,30.192 L237.328,25.728 L236.048,25.728 L236.048,24.272 L237.328,24.272 L237.328,22.16 L239.008,22.16 L239.008,24.272 L240.576,24.272 L240.576,25.728 L239.008,25.728 L239.008,29.776 C239.008,30.304 239.264,30.704 239.744,30.704 C240.064,30.704 240.352,30.56 240.48,30.416 L240.88,31.696 C240.576,31.968 240.08,32.192 239.312,32.192 Z M241.928,23.328 C241.352,23.328 240.888,22.864 240.888,22.288 C240.888,21.712 241.352,21.248 241.928,21.248 C242.504,21.248 242.968,21.712 242.968,22.288 C242.968,22.864 242.504,23.328 241.928,23.328 Z M242.76,32 L241.08,32 L241.08,24.272 L242.76,24.272 L242.76,32 Z M247.44,32.192 C244.976,32.192 243.472,30.336 243.472,28.128 C243.472,25.904 244.976,24.08 247.44,24.08 C249.904,24.08 251.408,25.904 251.408,28.128 C251.408,30.336 249.904,32.192 247.44,32.192 Z M247.44,30.704 C248.88,30.704 249.664,29.504 249.664,28.128 C249.664,26.768 248.88,25.568 247.44,25.568 C246.016,25.568 245.216,26.768 245.216,28.128 C245.216,29.504 246.016,30.704 247.44,30.704 Z M259.032,32 L257.352,32 L257.352,27.168 C257.352,25.952 256.728,25.568 255.784,25.568 C254.936,25.568 254.2,26.08 253.8,26.592 L253.8,32 L252.12,32 L252.12,24.272 L253.8,24.272 L253.8,25.312 C254.312,24.704 255.32,24.08 256.536,24.08 C258.2,24.08 259.032,24.976 259.032,26.56 L259.032,32 Z M261.088,32.176 C260.48,32.176 259.968,31.648 259.968,31.04 C259.968,30.448 260.48,29.936 261.088,29.936 C261.696,29.936 262.208,30.448 262.208,31.04 C262.208,31.648 261.696,32.176 261.088,32.176 Z"/>
  </g>
</svg>
