<?xml version="1.0" encoding="utf-8"?>
<!-- Generator: Adobe Illustrator 22.1.0, SVG Export Plug-In . SVG Version: 6.00 Build 0)  -->
<svg version="1.1" id="Layer_1" xmlns="http://www.w3.org/2000/svg" xmlns:xlink="http://www.w3.org/1999/xlink" x="0px" y="0px"
	 viewBox="0 0 175.5 76.5" style="enable-background:new 0 0 175.5 76.5;" xml:space="preserve">
<style type="text/css">
	.st0{fill:#3D3D3D;}
	.st1{fill-rule:evenodd;clip-rule:evenodd;fill:#009B3F;}
	.st2{fill:#009B3F;}
	.st3{fill:#E10D18;}
</style>
<path class="st0" d="M26.6,60.4c0.5,0.2,0.7,0.5,0.7,1c0,0.4-0.1,0.7-0.4,0.9c-0.1,0.1-0.3,0.2-0.5,0.2c-0.2,0-0.4,0.1-0.7,0.1h-2.8
	v-0.1l0.2-0.1l0-0.1v-3.5l0-0.1l-0.2-0.1v-0.1h2.8c0.3,0,0.5,0,0.7,0.1c0.2,0,0.3,0.1,0.4,0.2c0.2,0.2,0.4,0.5,0.4,0.8
	C27.1,59.9,26.9,60.2,26.6,60.4 M24,60.1h1.6c0.2,0,0.4,0,0.5-0.1c0.1-0.1,0.2-0.2,0.2-0.4c0-0.2-0.1-0.3-0.2-0.4
	c-0.1-0.1-0.3-0.1-0.5-0.1H24V60.1z M24,61.9h1.5c0.3,0,0.5,0,0.6-0.1c0.1-0.1,0.2-0.2,0.2-0.4c0-0.2-0.1-0.4-0.2-0.4
	c-0.1-0.1-0.3-0.1-0.6-0.1H24V61.9z"/>
<path class="st0" d="M39.4,61.5h-1.9l-0.3,0.6l-0.1,0.2c0,0.1,0.1,0.2,0.2,0.2v0.1H36v-0.1l0.2-0.1c0,0,0.1-0.1,0.1-0.2l1.5-3.2
	l0.1-0.2c0-0.1-0.1-0.2-0.2-0.2v-0.1h1.5v0.1c-0.1,0-0.2,0.1-0.2,0.2l0.1,0.2l1.6,3.2c0.1,0.1,0.1,0.2,0.2,0.3l0.2,0.1v0.1h-1.5
	v-0.1c0.1,0,0.2-0.1,0.2-0.2l-0.1-0.2L39.4,61.5z M39.2,60.9l-0.7-1.5l-0.7,1.5H39.2z"/>
<polygon class="st0" points="51.1,59.7 51.1,62.2 51.1,62.4 51.3,62.5 51.3,62.6 50.1,62.6 50.1,62.5 50.2,62.4 50.3,62.2 
	50.3,58.7 50.2,58.6 50.1,58.5 50.1,58.4 51.5,58.4 51.5,58.5 51.3,58.6 51.4,58.8 53.7,61.2 53.7,58.7 53.7,58.6 53.5,58.5 
	53.5,58.4 54.8,58.4 54.8,58.5 54.6,58.6 54.6,58.7 54.6,62.2 54.6,62.4 54.8,62.5 54.8,62.6 53.4,62.6 53.4,62.5 53.6,62.3 
	53.4,62.1 "/>
<path class="st0" d="M67.8,61.1h-1l-0.1,0l-0.1,0.2h-0.1v-1h0.1l0.1,0.2l0.1,0h2v0.1l-0.2,0.1l0,0.1v0.9l0,0.1l0.2,0.1V62
	c-0.8,0.5-1.6,0.7-2.3,0.7c-0.7,0-1.2-0.2-1.6-0.5c-0.5-0.4-0.8-1-0.8-1.7c0-0.7,0.2-1.2,0.7-1.6c0.5-0.4,1.1-0.6,1.8-0.6
	c0.2,0,0.5,0,0.7,0.1c0.2,0,0.4,0.1,0.7,0.2c0.1,0.1,0.2,0.1,0.3,0.1l0.1-0.1l0.1,0l-0.5,1l-0.1,0l0-0.1l-0.1-0.1
	c-0.1-0.1-0.3-0.2-0.5-0.2c-0.2-0.1-0.5-0.1-0.7-0.1c-0.4,0-0.8,0.1-1.1,0.4c-0.3,0.3-0.5,0.6-0.5,1.1c0,0.4,0.2,0.8,0.5,1.1
	c0.3,0.2,0.7,0.4,1.1,0.4c0.2,0,0.5,0,0.7-0.1c0.2-0.1,0.4-0.1,0.6-0.2V61.1z"/>
<polygon class="st0" points="79.2,61.9 81.7,61.9 81.9,61.8 82,61.7 82,61.7 82,62.8 82,62.8 81.9,62.6 81.7,62.6 78.1,62.6 
	78.1,62.5 78.2,62.4 78.3,62.2 78.3,58.7 78.2,58.6 78.1,58.5 78.1,58.4 79.4,58.4 79.4,58.5 79.2,58.6 79.2,58.7 "/>
<path class="st0" d="M94.4,61.5h-1.9l-0.3,0.6l-0.1,0.2c0,0.1,0.1,0.2,0.2,0.2v0.1H91v-0.1l0.2-0.1c0,0,0.1-0.1,0.1-0.2l1.5-3.2
	l0.1-0.2c0-0.1-0.1-0.2-0.2-0.2v-0.1h1.5v0.1c-0.1,0-0.2,0.1-0.2,0.2l0.1,0.2l1.6,3.2c0.1,0.1,0.1,0.2,0.2,0.3l0.2,0.1v0.1h-1.5
	v-0.1c0.1,0,0.2-0.1,0.2-0.2l-0.1-0.2L94.4,61.5z M94.1,60.9l-0.7-1.5l-0.7,1.5H94.1z"/>
<path class="st0" d="M105.2,62.2v-3.5l0-0.1l-0.2-0.1v-0.1h2.3c0.5,0,0.9,0.1,1.2,0.2c0.4,0.2,0.7,0.4,0.9,0.8
	c0.1,0.3,0.2,0.7,0.2,1.1c0,0.7-0.2,1.3-0.7,1.6c-0.2,0.2-0.4,0.3-0.7,0.3c-0.2,0.1-0.6,0.1-0.9,0.1H105v-0.1l0.2-0.1L105.2,62.2
	 M106.1,61.9h1.1c0.4,0,0.6,0,0.8-0.1c0.4-0.2,0.6-0.6,0.6-1.2c0-0.4-0.1-0.8-0.3-1c-0.1-0.1-0.3-0.2-0.4-0.3
	c-0.2-0.1-0.4-0.1-0.7-0.1h-1.1V61.9z"/>
<polygon class="st0" points="120,60.7 120,61.9 122.6,61.9 122.8,61.8 122.9,61.7 123,61.7 123,62.8 122.9,62.8 122.8,62.6 
	122.6,62.6 118.9,62.6 118.9,62.5 119,62.4 119.1,62.2 119.1,58.7 119,58.6 118.9,58.5 118.9,58.4 122.6,58.4 122.7,58.4 
	122.8,58.2 122.9,58.2 122.9,59.3 122.8,59.3 122.7,59.1 122.6,59.1 120,59.1 120,60.1 121.7,60.1 121.8,60 121.9,59.9 122,59.9 
	122,60.9 121.9,60.9 121.8,60.8 121.7,60.7 "/>
<path class="st0" d="M136.1,58.7l-0.5,1l-0.1,0l0,0c0-0.1-0.1-0.1-0.2-0.2c-0.4-0.3-0.8-0.4-1.3-0.4c-0.2,0-0.4,0-0.6,0.1
	c-0.1,0-0.2,0.1-0.3,0.2l-0.1,0.3c0,0.2,0.1,0.3,0.3,0.3c0.1,0,0.3,0.1,0.6,0.1l0.5,0c0.3,0,0.5,0.1,0.7,0.1
	c0.2,0.1,0.3,0.1,0.5,0.2c0.1,0.1,0.2,0.2,0.3,0.4c0.1,0.2,0.1,0.3,0.1,0.5c0,0.3-0.1,0.6-0.3,0.8c-0.2,0.2-0.4,0.4-0.8,0.5
	c-0.3,0.1-0.6,0.1-0.9,0.1c-0.5,0-1.1-0.1-1.6-0.4c-0.1-0.1-0.2-0.1-0.2-0.1l-0.1,0.1l-0.1,0l0.4-1l0.1,0v0l0.1,0.3
	c0.1,0.1,0.3,0.2,0.6,0.3c0.3,0.1,0.5,0.1,0.8,0.1c0.3,0,0.5,0,0.7-0.1l0.3-0.2l0.1-0.3c0-0.1-0.1-0.2-0.2-0.3
	c-0.1,0-0.3-0.1-0.6-0.1l-0.5,0c-0.3,0-0.5-0.1-0.7-0.1c-0.1,0-0.3-0.1-0.4-0.1c-0.2-0.1-0.3-0.2-0.4-0.4c-0.1-0.2-0.1-0.4-0.1-0.6
	c0-0.4,0.1-0.6,0.4-0.9c0.3-0.3,0.8-0.5,1.4-0.5c0.3,0,0.5,0,0.7,0.1c0.2,0.1,0.5,0.2,0.9,0.3c0.1,0,0.2,0.1,0.2,0.1L136.1,58.7
	L136.1,58.7z"/>
<polygon class="st0" points="148.8,60.7 146.4,60.7 146.4,62.2 146.5,62.4 146.6,62.5 146.6,62.6 145.3,62.6 145.3,62.5 145.5,62.4 
	145.5,62.2 145.5,58.7 145.5,58.6 145.3,58.5 145.3,58.4 146.6,58.4 146.6,58.5 146.5,58.6 146.4,58.7 146.4,60.1 148.8,60.1 
	148.8,58.7 148.8,58.6 148.6,58.5 148.6,58.4 149.9,58.4 149.9,58.5 149.8,58.6 149.7,58.7 149.7,62.2 149.8,62.4 149.9,62.5 
	149.9,62.6 148.6,62.6 148.6,62.5 148.8,62.4 148.8,62.2 "/>
<polygon class="st1" points="148.1,21.1 148.1,21.1 147.1,20.6 145.9,20.2 143.4,19.5 140.7,19.2 137.8,19.1 136.2,19.1 134.7,19.3 
	133.5,19.5 132.1,19.8 131,20.2 129.9,20.7 129,21.3 128.1,21.9 127.3,22.6 126.6,23.3 126,24.1 125.5,25 125.2,26 124.8,26.9 
	124.7,28 124.6,29 124.7,30 124.8,30.8 125,31.6 125.3,32.3 125.6,33.1 126.1,33.7 126.5,34.4 127.1,35 127.8,35.5 128.5,36 
	130.2,37 132.3,37.9 134.5,38.7 138.1,40 139.6,40.5 140.7,41.1 141.7,41.8 142,42.1 142.3,42.6 142.5,43.1 142.7,43.5 142.8,44.1 
	142.8,44.7 142.7,45.8 142.4,46.6 141.8,47.4 140.9,48.1 140,48.7 138.8,49.2 137.4,49.4 135.9,49.5 134.8,49.4 133.9,49.3 
	132.9,49.2 132.1,48.9 131.2,48.6 130.5,48.2 129.8,47.8 129.1,47.2 128.4,46.7 127.9,46 127.3,45.3 126.9,44.6 126.5,43.8 
	126.2,43 126,42 125.7,41.1 124.7,41.1 124.8,51.5 126.2,52 127.5,52.5 128.9,52.9 130.3,53.2 131.7,53.5 133.2,53.6 134.6,53.7 
	136.1,53.7 137.8,53.7 139.2,53.6 140.7,53.3 142,52.9 143.3,52.5 144.5,52 145.5,51.4 146.5,50.7 147.3,50 148.1,49.2 148.7,48.2 
	149.2,47.4 149.7,46.5 149.9,45.4 150.1,44.5 150.3,43.4 150.1,42.5 150,41.7 149.8,40.9 149.6,40.2 149.2,39.4 148.8,38.9 
	148.3,38.2 147.8,37.6 147.1,37 146.3,36.5 144.6,35.6 142.7,34.6 140.4,33.8 136.6,32.5 135.1,31.9 133.9,31.4 132.9,30.8 
	132.6,30.4 132.3,30 132,29.5 131.8,29 131.7,28.6 131.7,28 131.8,26.9 132.1,26 132.6,25.2 133.3,24.6 134.2,24 135.2,23.6 
	136.4,23.3 137.8,23.3 139.6,23.4 141.3,23.7 142.7,24.3 144.1,25.2 144.7,25.7 145.3,26.2 145.8,26.8 146.2,27.5 146.7,28.2 
	147,28.9 147.2,29.6 147.4,30.4 148.5,30.4 "/>
<polygon class="st1" points="83.6,19.8 83.6,21.1 84.2,21.1 84.8,21.3 85.3,21.4 85.6,21.8 85.8,22.1 85.9,22.5 86,23 86,23.7 
	86,24.5 84.6,47.6 84.5,49.5 84.2,50.2 84,50.8 83.7,51.3 83.2,51.5 82.6,51.7 81.7,51.9 81.7,53.2 91.6,53.2 91.6,51.9 90.2,51.5 
	89.8,51.3 89.4,51 89.2,50.7 89,50.2 88.9,49.8 88.9,49.1 88.9,47.8 89.9,27.3 99.1,53.2 103,53.2 111.5,27.6 112.7,47.1 
	112.7,48.5 112.7,49.3 112.6,49.9 112.5,50.5 112.1,50.9 111.8,51.3 111.3,51.5 110.7,51.6 109.9,51.9 109.9,53.2 122.1,53.2 
	122.1,51.9 121.4,51.6 120.8,51.5 120.3,51.3 120,50.9 119.8,50.5 119.7,50 119.6,48.5 117.9,24.7 117.9,23.2 117.9,22.7 118,22.3 
	118.1,22 118.3,21.6 118.7,21.4 119,21.3 119.9,21.1 119.9,19.8 110,19.8 102.4,42.8 94,19.8 "/>
<polygon class="st1" points="25.4,19.8 25.4,21.1 26.1,21.1 26.7,21.3 27.1,21.4 27.5,21.8 27.7,22.1 27.8,22.5 27.9,23 28,23.7 
	28,24.5 26.4,47.6 26.3,49.5 26.1,50.2 25.9,50.8 25.6,51.3 25.1,51.5 24.4,51.7 23.5,51.9 23.5,53.2 33.4,53.2 33.4,51.9 
	32.2,51.5 31.6,51.3 31.3,51 31.1,50.7 30.8,50.2 30.7,49.8 30.7,49.1 30.8,47.8 31.8,27.3 41.1,53.2 45,53.2 53.3,27.6 54.6,47.1 
	54.6,48.5 54.6,49.3 54.5,49.9 54.3,50.5 54.1,50.9 53.7,51.3 53.2,51.5 52.5,51.6 51.8,51.9 51.8,53.2 64,53.2 64,51.9 63.3,51.6 
	62.7,51.5 62.2,51.3 62,50.9 61.8,50.5 61.5,50 61.4,48.5 59.7,24.7 59.7,23.2 59.7,22.7 59.8,22.3 60,22 60.2,21.6 60.5,21.4 
	60.9,21.3 61.8,21.1 61.8,19.8 51.9,19.8 44.2,42.8 35.9,19.8 "/>
<path class="st2" d="M80.2,25.1c0,3.4-2.7,6.1-6.1,6.1c-3.4,0-6.1-2.7-6.1-6.1c0-3.4,2.7-6.1,6.1-6.1c1.6,0,3.2,0.6,4.3,1.8
	C79.5,22,80.2,23.5,80.2,25.1"/>
<path class="st3" d="M77,25c0,1.6-1.3,2.9-2.9,2.9c-1.6,0-2.9-1.3-2.9-2.9c0-1.6,1.3-2.9,2.9-2.9C75.7,22.1,77,23.4,77,25"/>
<path class="st2" d="M79.3,51.7l-0.6-0.2l-0.4-0.2L78,51l-0.2-0.5l-0.1-0.5l-0.1-0.6l-0.1-0.6v-9.4h0v-6.2c0,0-0.6,0.7-3.3,0.8
	c-2,0-3.6-0.8-3.6-0.8v15.5l-0.1,0.6v0.6l-0.2,0.5L70,51l-0.3,0.2l-0.5,0.2l-0.6,0.2l-0.6,0.1v1.3h11.8v-1.3L79.3,51.7z"/>
<path class="st0" d="M23.1,16.9l0.2-4.7l0,0h0l0,0l0,0h0h0L23,12.3l-0.1,0l-0.1,0l-0.1,0l0,0h0h0h-0.4h0h0l0,0l-0.1,0L22,12.3
	l-0.1-0.1l0-0.1v0v0v0v0l0.2-0.1l0.2-0.1l0.3,0l0.3,0h0h0H23l0.1,0l0.1,0l0.1,0l0.1,0v0v0v0l0,0v0v0v0v0l0,0v0l0,0h0l0,0h0h0h0.4
	l0,0l0.1,0l0.1,0l0.1,0l0,0l0.1,0.1l0,0l0,0l0,0l0,0l0.1,0l0.2,0c0.1,0,0.3,0,0.4,0h0.5h0.4h0h0h0.5c0.2,0,0.3,0,0.5,0l0.2,0l0.2,0
	h0.2l0.1,0l0.1,0l0.1,0l0.1,0l0.1,0c0.1,0,0.2,0.1,0.4,0.1c0.1,0,0.2,0.1,0.3,0.2c0.1,0.1,0.2,0.2,0.2,0.3c0,0.1,0.1,0.2,0.1,0.4v0
	v0v0v0c0,0.3-0.1,0.5-0.3,0.7c-0.1,0.2-0.3,0.4-0.5,0.5c-0.2,0.1-0.4,0.3-0.7,0.4c-0.2,0.1-0.5,0.2-0.7,0.2c-0.1,0-0.2,0-0.3,0
	c-0.1,0-0.2,0-0.3,0l-0.3,0h-0.3l0.2,0.2c0.1,0.1,0.2,0.2,0.3,0.3c0.1,0.1,0.3,0.2,0.4,0.3c0.1,0.1,0.3,0.2,0.4,0.3l0.1,0.1l0.1,0.1
	l0,0l0.1,0l0.1,0l0,0c0.2,0.1,0.4,0.3,0.5,0.4c0.2,0.1,0.3,0.2,0.5,0.3c0.2,0.1,0.3,0.2,0.4,0.2c0.1,0.1,0.2,0.1,0.3,0.1l-0.4,0l0,0
	h0h0h0l0.1,0h0.4l0.1,0l0,0.1l0,0.1l-0.1,0.1l0,0l-0.1,0l0,0l0,0l0,0l0,0l0,0l0,0l0,0l0,0l-0.1,0l-0.1,0h-0.4h0h0h0
	c-0.1-0.1-0.2-0.2-0.4-0.3c-0.1-0.1-0.3-0.2-0.5-0.4c-0.2-0.1-0.4-0.3-0.6-0.5c-0.2-0.2-0.4-0.3-0.6-0.5l-0.1,0l0,0l0,0l-0.1,0l0,0
	l0-0.1l-0.1,0l0,0c-0.1-0.1-0.3-0.2-0.4-0.4c-0.1-0.1-0.3-0.2-0.4-0.4c-0.1-0.1-0.3-0.2-0.4-0.3c-0.1-0.1-0.2-0.2-0.3-0.3l0.1-0.1
	l0.1-0.1l0.1,0l0.1,0H25h0h0l0,0h0l0.1,0h0.1l0.1,0l0.1,0h0h0h0h0h0h0l0,0h0.1l0.2,0l0.2,0c0.1,0,0.3-0.1,0.4-0.1
	c0.1-0.1,0.3-0.1,0.4-0.2c0.1-0.1,0.2-0.2,0.4-0.3c0.1-0.1,0.2-0.2,0.3-0.4l0.1-0.1l0-0.1l0-0.1l0-0.1c0-0.1,0-0.3-0.1-0.4
	c-0.1-0.1-0.2-0.2-0.3-0.3c-0.1-0.1-0.3-0.1-0.4-0.2c-0.1,0-0.3-0.1-0.5-0.1l-0.3,0l-0.3,0l-0.1,0h-0.1h0h0h0h0h0l-0.2,0l-0.2,0
	l-0.2,0l-0.2,0l-0.1,0l-0.1,0l-0.1,0l-0.1,0c0,0.3,0,0.5,0,0.8c0,0.3,0,0.5,0,0.8c0,0.3,0,0.5,0,0.8c0,0.3,0,0.5,0,0.7v0.6
	c0,0.2,0,0.4,0,0.5c0,0.2,0,0.3,0,0.5c0,0.2,0,0.3,0,0.5l0,0l0,0l-0.1,0l0,0h-0.4h0h0l0,0h0l0,0l0,0l-0.1,0l-0.1-0.1l-0.1-0.1
	L23.1,17L23.1,16.9L23.1,16.9L23.1,16.9z M33.4,14.1L33.4,14.1h0.4h0h0l0,0l0,0l0,0l0,0l0,0l0,0l0,0l0,0l0,0v0.1l0,0l0,0.1l0,0l0,0
	l0,0l-0.2,0.1c-0.1,0-0.2,0.1-0.3,0.1c-0.1,0-0.3,0.1-0.4,0.2c-0.1,0.1-0.3,0.2-0.5,0.3l0,0l-0.1,0.1l0,0l0,0
	c0.3,0.3,0.5,0.6,0.7,0.8c0.2,0.2,0.4,0.4,0.5,0.4c0.1,0.1,0.2,0.2,0.3,0.2l0.2,0.2l0,0l0,0l0,0.1L34,17.3l-0.1,0.1l-0.1,0l-0.1,0
	l-0.1,0h0h0h0h0l-0.4,0l-0.2-0.1l-0.2-0.2L32.4,17c-0.1-0.1-0.2-0.2-0.2-0.3l-0.1-0.1L32,16.5L32,16.4l-0.1-0.1l0-0.1l0,0l0,0.1
	l-0.1,0.1l-0.1,0.1l-0.1,0.1l-0.1,0.2L31.3,17l0,0l0,0c-0.1,0.1-0.1,0.2-0.2,0.3l-0.2,0.3c-0.1,0.1-0.1,0.2-0.2,0.3l-0.1,0.1l0,0
	l0,0h-0.4l0,0h0l-0.1,0l0-0.1l-0.1,0l0-0.1l0,0v0v0l0,0l0.1-0.2l0.2-0.3l0.2-0.3l0.2-0.3l0,0l0,0l0.2-0.2l0.2-0.2l0.2-0.2l0.1-0.2
	c-0.2-0.2-0.4-0.4-0.5-0.6c-0.2-0.2-0.3-0.3-0.5-0.4c-0.1-0.1-0.3-0.2-0.4-0.2l-0.2-0.2l0-0.1l0,0v0v0l0,0l0.1,0l0.1,0h0.1h0.4h0h0
	l0,0h0h0h0h0h0l0.2,0l0.2,0l0.1,0.1l0.1,0.1l0.2,0.2l0.1,0.1l0.1,0.1l0.1,0.1l0,0l0,0l0,0.1l0,0h0v0l0.1-0.1l0.1-0.2l0.1-0.1
	l0.1-0.1l0.1-0.1l0.1-0.1l0.1-0.1l0.1,0l0.1,0l0.1,0l0.1,0l0.1,0L33.4,14.1L33.4,14.1"/>
<path class="st0" d="M155.8,22.1h0.8v-3.4c0-0.1,0-0.3,0-0.6c0-0.3,0-0.5,0-0.7v-0.2l1.7,4.9h0.8l1.7-4.9c0,0.3,0,0.6,0,0.9
	c0,0.3,0,0.5,0,0.6v3.4h0.8v-5.8h-1.1l-1.7,4.9l-1.7-4.9h-1.1V22.1z M150.4,16.3V17h2v5.1h0.8V17h2v-0.7H150.4z"/>
</svg>
