<svg xmlns="http://www.w3.org/2000/svg" width="18" height="17" viewBox="0 0 18 17">
  <path fill="none" stroke="#02A44F" stroke-linecap="round" stroke-linejoin="round" d="M8 2.85714286C8 1.47571429 11.5812174.357142857 15.6521739.357142857L15.6521739 12.1428571C11.5812174 12.1428571 8 13.2614286 8 14.6428571 8 13.2614286 4.41808696 12.1428571.347826087 12.1428571L.347826087.357142857C4.41808696.357142857 8 1.47571429 8 2.85714286zM8 2.85714286L8 14.5535714M6.26086957 4.45714286C5.14086957 4.01714286 3.55686957 3.69785714 1.73913043 3.57142857M6.26086957 6.6C5.14086957 6.16 3.55686957 5.84071429 1.73913043 5.71428571M6.26086957 8.74285714C5.14086957 8.30285714 3.55686957 7.98357143 1.73913043 7.85714286M6.26086957 10.8857143C5.14086957 10.4457143 3.55686957 10.1264286 1.73913043 10M9.73913043 4.45714286C10.8591304 4.01642857 12.4431304 3.69785714 14.2608696 3.57142857M9.73913043 6.6C10.8591304 6.15928571 12.4431304 5.84071429 14.2608696 5.71428571M9.73913043 8.74285714C10.8591304 8.30214286 12.4431304 7.98357143 14.2608696 7.85714286M9.73913043 10.8857143C10.8591304 10.445 12.4431304 10.1264286 14.2608696 10" transform="translate(1 1)"/>
</svg>
