<svg xmlns="http://www.w3.org/2000/svg" width="233" height="80" viewBox="0 0 233 80">
  <g fill="none" fill-rule="evenodd">
    <polygon fill="#02A44F" points="146.202 11.922 146.202 11.922 145.031 11.378 143.599 10.97 140.732 10.152 137.606 9.744 134.219 9.608 132.396 9.608 130.701 9.881 129.269 10.152 127.705 10.426 126.403 10.97 125.102 11.513 124.06 12.195 123.017 12.874 122.106 13.691 121.325 14.508 120.54 15.461 120.022 16.55 119.631 17.639 119.24 18.728 119.112 19.953 118.979 21.178 119.112 22.267 119.24 23.22 119.37 24.173 119.761 24.99 120.152 25.943 120.673 26.623 121.194 27.44 121.844 28.12 122.628 28.665 123.538 29.345 125.493 30.434 127.838 31.523 130.442 32.476 134.611 33.973 136.303 34.517 137.606 35.198 138.78 36.014 139.169 36.423 139.429 36.968 139.69 37.513 139.95 38.057 140.081 38.737 140.081 39.418 139.95 40.643 139.562 41.596 138.908 42.548 137.868 43.366 136.824 44.047 135.392 44.591 133.829 44.863 132.005 45 130.832 44.863 129.79 44.726 128.618 44.591 127.705 44.318 126.665 43.91 125.752 43.501 124.972 42.958 124.189 42.277 123.409 41.731 122.757 40.916 122.106 40.098 121.584 39.281 121.194 38.329 120.803 37.376 120.54 36.287 120.284 35.198 119.112 35.198 119.24 47.313 120.803 47.857 122.366 48.401 123.929 48.947 125.623 49.218 127.186 49.626 128.879 49.763 130.573 49.898 132.265 49.898 134.219 49.898 135.913 49.763 137.606 49.355 139.169 48.947 140.603 48.401 142.036 47.857 143.208 47.175 144.381 46.36 145.29 45.543 146.202 44.591 146.852 43.501 147.504 42.548 148.025 41.46 148.287 40.234 148.548 39.146 148.677 37.92 148.548 36.831 148.417 35.88 148.155 34.926 147.896 34.109 147.504 33.293 146.985 32.612 146.463 31.796 145.811 31.116 145.031 30.434 144.118 29.889 142.165 28.801 139.95 27.712 137.217 26.759 132.916 25.262 131.093 24.582 129.79 23.901 128.618 23.22 128.228 22.812 127.838 22.267 127.576 21.722 127.317 21.178 127.186 20.634 127.186 19.953 127.317 18.728 127.705 17.639 128.228 16.686 129.009 16.006 130.052 15.326 131.224 14.916 132.657 14.508 134.219 14.508 136.303 14.645 138.258 15.053 139.95 15.734 141.514 16.686 142.295 17.367 142.946 17.911 143.467 18.593 143.989 19.408 144.509 20.225 144.9 21.042 145.16 21.858 145.422 22.812 146.596 22.812"/>
    <polygon fill="#02A44F" points="71.438 10.426 71.438 11.922 72.219 11.922 72.868 12.195 73.391 12.33 73.781 12.74 74.042 13.148 74.172 13.556 74.303 14.236 74.303 15.053 74.303 15.87 72.609 42.821 72.478 45 72.219 45.815 71.958 46.495 71.567 47.04 71.047 47.313 70.265 47.584 69.222 47.721 69.222 49.218 80.684 49.218 80.684 47.721 79.123 47.313 78.602 47.04 78.211 46.768 77.95 46.36 77.688 45.815 77.558 45.271 77.558 44.453 77.558 42.958 78.731 19.136 89.411 49.218 93.97 49.218 103.741 19.543 105.172 42.141 105.172 43.773 105.172 44.726 105.042 45.406 104.913 46.088 104.521 46.632 104.131 47.04 103.61 47.313 102.828 47.45 101.916 47.721 101.916 49.218 116.115 49.218 116.115 47.721 115.202 47.45 114.55 47.313 114.028 47.04 113.64 46.632 113.378 46.088 113.248 45.543 113.118 43.773 111.163 16.141 111.163 14.371 111.163 13.827 111.295 13.42 111.425 13.011 111.685 12.603 112.077 12.33 112.466 12.195 113.509 11.922 113.509 10.426 102.046 10.426 93.189 37.24 83.549 10.426"/>
    <polygon fill="#02A44F" points="4.095 10.426 4.095 11.922 4.876 11.922 5.527 12.195 6.048 12.33 6.44 12.74 6.699 13.148 6.83 13.556 6.96 14.236 7.091 15.053 7.091 15.87 5.267 42.821 5.138 45 4.876 45.815 4.615 46.495 4.225 47.04 3.705 47.313 2.922 47.584 1.881 47.721 1.881 49.218 13.344 49.218 13.344 47.721 11.91 47.313 11.26 47.04 10.869 46.768 10.608 46.36 10.348 45.815 10.216 45.271 10.216 44.453 10.348 42.958 11.52 19.136 22.2 49.218 26.758 49.218 36.398 19.543 37.831 42.141 37.831 43.773 37.831 44.726 37.701 45.406 37.572 46.088 37.311 46.632 36.789 47.04 36.269 47.313 35.486 47.45 34.575 47.721 34.575 49.218 48.773 49.218 48.773 47.721 47.991 47.45 47.21 47.313 46.688 47.04 46.428 46.632 46.166 46.088 45.907 45.543 45.777 43.773 43.823 16.141 43.823 14.371 43.823 13.827 43.952 13.42 44.083 13.011 44.343 12.603 44.734 12.33 45.126 12.195 46.166 11.922 46.166 10.426 34.706 10.426 25.848 37.24 16.209 10.426"/>
    <g transform="translate(0 .492)">
      <path fill="#EA2227" d="M2.84066617 58.3905294L4.62469624 58.3905294C4.95487669 58.3905294 5.19356842 58.3446471 5.33901203 58.2522941 5.50615489 58.1458235 5.59060602 57.9728824 5.59060602 57.7328824 5.59060602 57.4946471 5.50615489 57.3211176 5.33901203 57.2134706 5.19650075 57.1217059 4.95780902 57.0752353 4.62469624 57.0752353L2.84066617 57.0752353 2.84066617 58.3905294zM2.84066617 56.2793529L4.68451579 56.2793529C4.96308722 56.2793529 5.15838045 56.2393529 5.26922256 56.1552353 5.39355338 56.0617059 5.45513233 55.9164118 5.45513233 55.7175882 5.45513233 55.5152353 5.39648571 55.3711176 5.27977895 55.2840588 5.16248571 55.1987647 4.96308722 55.1558235 4.68451579 55.1558235L2.84066617 55.1558235 2.84066617 56.2793529zM5.85041053 56.6581765C6.39054586 56.8628824 6.66149323 57.2422941 6.66149323 57.7958235 6.66149323 58.237 6.5043203 58.5817059 6.1888015 58.8317059 6.02928271 58.957 5.84454586 59.0464118 5.63400451 59.1028824 5.42346316 59.1575882 5.16424511 59.1858235 4.85341805 59.1858235L1.56451579 59.1858235 1.56451579 59.0722941C1.64955338 59.0487647 1.70761353 59.0181765 1.74104211 58.9805294 1.77447068 58.9422941 1.79030526 58.8875882 1.79030526 58.8152353L1.79030526 54.7317059C1.79030526 54.6587647 1.77447068 54.6034706 1.74104211 54.5652353 1.70761353 54.5275882 1.64955338 54.497 1.56451579 54.4740588L1.56451579 54.3605294 4.82233534 54.3605294C5.13316241 54.3605294 5.38534286 54.3834706 5.57535789 54.4311176 5.76537293 54.4781765 5.93251579 54.5587647 6.07561353 54.6711176 6.36004962 54.8958235 6.50197444 55.2175882 6.50197444 55.6399412 6.50197444 56.1111176 6.28498195 56.4505294 5.85041053 56.6581765L5.85041053 56.6581765zM20.4037444 57.2944706L19.6237444 55.5756471 18.8302556 57.2944706 20.4037444 57.2944706zM20.7057744 57.9550588L18.5188421 57.9550588 18.1951128 58.6338824C18.1511278 58.728 18.1282556 58.8021176 18.1282556 58.8562353 18.1282556 58.9609412 18.2062556 59.0327059 18.3634286 59.0721176L18.3634286 59.1856471 16.7729323 59.1856471 16.7729323 59.0721176C16.8661805 59.0532941 16.9383158 59.0203529 16.9881654 58.9732941 17.0374286 58.9262353 17.0931429 58.8344706 17.1570677 58.6974118L18.9258496 54.9903529C18.9821504 54.8721176 19.0108872 54.7774118 19.0108872 54.7074118 19.0108872 54.5985882 18.9428571 54.5209412 18.8056241 54.4738824L18.8056241 54.3609412 20.5122406 54.3609412 20.5122406 54.4738824C20.3732481 54.5132941 20.3040451 54.5832941 20.3040451 54.6827059 20.3040451 54.7509412 20.3269173 54.8285882 20.3709023 54.9150588L22.203609 58.6338824C22.2810226 58.7921176 22.3496391 58.8997647 22.4076992 58.958 22.4675188 59.0156471 22.5449323 59.0532941 22.6440451 59.0721176L22.6440451 59.1856471 20.8740902 59.1856471 20.8740902 59.0721176C21.0283308 59.0468235 21.1063308 58.9732941 21.1063308 58.8532941 21.1063308 58.8032941 21.0828722 58.7303529 21.0365414 58.6338824L20.7057744 57.9550588zM34.1937338 55.8807647L34.1937338 58.8148824C34.1937338 58.8872353 34.2095684 58.9425294 34.242997 58.9807647 34.2764256 59.0184118 34.3338992 59.049 34.4195233 59.0725294L34.4195233 59.1854706 33.0067263 59.1854706 33.0067263 59.0725294C33.090591 59.049 33.1498241 59.0184118 33.1820797 58.9807647 33.2160947 58.9425294 33.2307564 58.8872353 33.2307564 58.8148824L33.2307564 54.7278235C33.2307564 54.6572353 33.2160947 54.6031176 33.1820797 54.5654706 33.1498241 54.5272353 33.090591 54.4966471 33.0067263 54.4737059L33.0067263 54.3607647 34.641794 54.3607647 34.641794 54.4737059C34.5403353 54.499 34.4893128 54.5537059 34.4893128 54.6360588 34.4893128 54.6925294 34.5233278 54.7554706 34.589012 54.8237059L37.2415985 57.5913529 37.2415985 54.7278235C37.2415985 54.6572353 37.2257639 54.6031176 37.1929218 54.5654706 37.1589068 54.5272353 37.1002602 54.4966471 37.0163955 54.4737059L37.0163955 54.3607647 38.4297789 54.3607647 38.4297789 54.4737059C38.3453278 54.4966471 38.2866812 54.5272353 38.2538391 54.5654706 38.2204105 54.6031176 38.2045759 54.6572353 38.2045759 54.7278235L38.2045759 58.8148824C38.2045759 58.8872353 38.2204105 58.9425294 38.2538391 58.9807647 38.2866812 59.0184118 38.3453278 59.049 38.4297789 59.0725294L38.4297789 59.1854706 36.9137639 59.1854706 36.9137639 59.0725294C37.0128767 59.0519412 37.0627263 59.0007647 37.0627263 58.9207647 37.0627263 58.8737059 37.0046662 58.7907647 36.8897188 58.6731176L34.1937338 55.8807647zM53.5001414 57.4495882L52.3131338 57.4495882C52.2398256 57.4495882 52.1852842 57.4666471 52.1483368 57.5001765 52.1131489 57.5325294 52.0820662 57.5913529 52.0580211 57.6760588L51.9454195 57.6760588 51.9454195 56.5519412 52.0580211 56.5519412C52.0820662 56.639 52.1131489 56.6984118 52.1483368 56.7307647 52.1846977 56.7619412 52.2392391 56.7778235 52.3119609 56.7778235L54.5927278 56.7778235 54.5927278 56.8913529C54.5094496 56.9154706 54.450803 56.9460588 54.416788 56.9837059 54.3839459 57.0207647 54.3675248 57.0760588 54.3675248 57.1495882L54.3675248 58.1395882C54.3675248 58.2125294 54.3839459 58.2678235 54.4150286 58.3048824 54.4478707 58.3425294 54.5071038 58.3737059 54.5927278 58.3966471L54.5927278 58.4860588C53.6796 59.0084118 52.7940361 59.2701765 51.9366226 59.2701765 51.1601414 59.2701765 50.525585 59.0848824 50.0347128 58.7154706 49.4177504 58.249 49.1092692 57.6013529 49.1092692 56.7713529 49.1092692 55.9984118 49.3837353 55.3837059 49.9332541 54.9266471 50.4557955 54.4925294 51.1472391 54.2754706 52.0122767 54.2754706 52.2879158 54.2754706 52.5477203 54.3013529 52.7905173 54.3513529 53.0333143 54.4025294 53.3095398 54.4878235 53.619194 54.6078235 53.7798857 54.6707647 53.8942466 54.7037059 53.9622767 54.7037059 54.0109534 54.7037059 54.0690135 54.6760588 54.1346977 54.6219412L54.2326376 54.6748824 53.6672842 55.8313529 53.5646526 55.7778235C53.5628932 55.7001765 53.5523368 55.6448824 53.5335699 55.6119412 53.514803 55.5772353 53.4725774 55.5348824 53.4057203 55.4854706 53.263209 55.3784118 53.0532541 55.2860588 52.7758556 55.2095882 52.4996301 55.1337059 52.2380662 55.0948824 51.9905774 55.0948824 51.4879759 55.0948824 51.071585 55.2366471 50.7396451 55.519 50.3672391 55.8395882 50.1801564 56.2625294 50.1801564 56.7878235 50.1801564 57.2954706 50.3625474 57.7066471 50.7267429 58.0195882 51.0598556 58.3066471 51.4991188 58.4495882 52.0451188 58.4495882 52.310788 58.4495882 52.5723519 58.4195882 52.830397 58.3578235 53.0884421 58.2966471 53.3118857 58.2131176 53.5001414 58.1072353L53.5001414 57.4495882zM66.6434932 58.3905294L69.5992827 58.3905294C69.672591 58.3905294 69.7271323 58.3740588 69.7646662 58.3411176 69.8033729 58.3075882 69.8326962 58.2493529 69.8567414 58.1640588L69.9693429 58.1640588 69.9693429 59.4117059 69.8567414 59.4117059C69.8326962 59.3264118 69.8033729 59.2681765 69.7646662 59.2352353 69.7271323 59.2017059 69.672591 59.1858235 69.5992827 59.1858235L65.3667564 59.1858235 65.3667564 59.0722941C65.4512075 59.0487647 65.5098541 59.0181765 65.5438692 58.9805294 65.5761248 58.9422941 65.5919594 58.8875882 65.5919594 58.8152353L65.5919594 54.7317059C65.5919594 54.6587647 65.5761248 54.6034706 65.5438692 54.5652353 65.5098541 54.5275882 65.4512075 54.497 65.3667564 54.4740588L65.3667564 54.3605294 66.8686962 54.3605294 66.8686962 54.4740588C66.7842451 54.4952353 66.725012 54.5246471 66.6915835 54.5634706 66.6587414 54.6022941 66.6434932 54.6587647 66.6434932 54.7317059L66.6434932 58.3905294zM83.9127519 57.2944706L83.1327519 55.5756471 82.3398496 57.2944706 83.9127519 57.2944706zM84.214782 57.9550588L82.0284361 57.9550588 81.7041203 58.6338824C81.6601353 58.728 81.6378496 58.8021176 81.6378496 58.8562353 81.6378496 58.9609412 81.7164361 59.0327059 81.8730226 59.0721176L81.8730226 59.1856471 80.2825263 59.1856471 80.2825263 59.0721176C80.3757744 59.0532941 80.4484962 59.0203529 80.4971729 58.9732941 80.5464361 58.9262353 80.6021504 58.8344706 80.6666617 58.6974118L82.4354436 54.9903529C82.4917444 54.8721176 82.5193083 54.7774118 82.5193083 54.7074118 82.5193083 54.5985882 82.4524511 54.5209412 82.315218 54.4738824L82.315218 54.3609412 84.0218346 54.3609412 84.0218346 54.4738824C83.8828421 54.5132941 83.8130526 54.5832941 83.8130526 54.6827059 83.8130526 54.7509412 83.8353383 54.8285882 83.8799098 54.9150588L85.713203 58.6338824C85.791203 58.7921176 85.8580602 58.8997647 85.9172932 58.958 85.9759398 59.0156471 86.0539398 59.0532941 86.1536391 59.0721176L86.1536391 59.1856471 84.3825113 59.1856471 84.3825113 59.0721176C84.5379248 59.0468235 84.6153383 58.9732941 84.6153383 58.8532941 84.6153383 58.8032941 84.5924662 58.7303529 84.5443759 58.6338824L84.214782 57.9550588zM97.7914737 58.3905294L99.1104361 58.3905294C99.5321053 58.3905294 99.848797 58.3322941 100.059925 58.217 100.51385 57.9687647 100.740812 57.4875882 100.740812 56.7711176 100.740812 56.2528824 100.618241 55.8552353 100.373098 55.5793529 100.238211 55.427 100.073414 55.3181765 99.8798797 55.2528824 99.6875188 55.1875882 99.4306466 55.1558235 99.1104361 55.1558235L97.7914737 55.1558235 97.7914737 58.3905294zM96.7416992 58.8152353L96.7416992 54.7317059C96.7416992 54.6587647 96.7246917 54.6034706 96.6918496 54.5652353 96.6578346 54.5275882 96.599188 54.497 96.5153233 54.4740588L96.5153233 54.3605294 99.198406 54.3605294C99.787218 54.3605294 100.238211 54.427 100.553729 54.5617059 101.004722 54.7575882 101.338421 55.0799412 101.554827 55.5305294 101.726075 55.8834706 101.811113 56.297 101.811113 56.7711176 101.811113 57.6028824 101.557759 58.237 101.047534 58.6728824 100.832887 58.8564118 100.583053 58.9881765 100.295684 59.067 100.009489 59.1458235 99.6423609 59.1858235 99.198406 59.1858235L96.5153233 59.1858235 96.5153233 59.0722941C96.599188 59.0487647 96.6578346 59.0181765 96.6918496 58.9805294 96.7246917 58.9422941 96.7416992 58.8875882 96.7416992 58.8152353L96.7416992 58.8152353zM113.795608 57.0687059L113.795608 58.3904706 116.889217 58.3904706C116.960179 58.3904706 117.013547 58.374 117.052254 58.3410588 117.088615 58.3075294 117.120284 58.2492941 117.144329 58.164L117.256344 58.164 117.256344 59.4116471 117.144329 59.4116471C117.120284 59.3263529 117.088615 59.2681176 117.052254 59.2351765 117.013547 59.2016471 116.960179 59.1857647 116.889217 59.1857647L112.519457 59.1857647 112.519457 59.0722353C112.604495 59.0487059 112.661968 59.0181176 112.695983 58.9804706 112.729412 58.9428235 112.745833 58.8875294 112.745833 58.8151765L112.745833 54.7316471C112.745833 54.6587059 112.729412 54.6034118 112.695983 54.5651765 112.661968 54.5275294 112.604495 54.4969412 112.519457 54.474L112.519457 54.3604706 116.805352 54.3604706C116.875728 54.3604706 116.930856 54.344 116.967217 54.3098824 117.00475 54.2769412 117.035247 54.2175294 117.058705 54.134L117.171893 54.134 117.171893 55.3816471 117.058705 55.3816471C117.035247 55.2981176 117.00475 55.2398824 116.967217 55.2069412 116.930856 55.1722353 116.875728 55.1557647 116.805352 55.1557647L113.795608 55.1557647 113.795608 56.3010588 115.747367 56.3010588C115.817743 56.3010588 115.872871 56.2845882 115.909818 56.2516471 115.947352 56.2192941 115.978435 56.1592941 116.001307 56.0751765L116.114495 56.0751765 116.114495 57.2945882 116.001307 57.2945882C115.978435 57.2122353 115.947352 57.154 115.909818 57.1198824 115.872871 57.0851765 115.817743 57.0687059 115.747367 57.0687059L113.795608 57.0687059zM132.431919 54.7697647L131.857182 55.9050588 131.758656 55.848C131.761002 55.8256471 131.762761 55.8056471 131.762761 55.7921176 131.762761 55.7121176 131.694144 55.6256471 131.558671 55.5338824 131.139934 55.2421176 130.648475 55.0950588 130.084881 55.0950588 129.83622 55.0950588 129.615122 55.1256471 129.42628 55.1868235 129.287287 55.2350588 129.175272 55.3050588 129.089648 55.3985882 129.003438 55.4932941 128.960626 55.5950588 128.960626 55.7074118 128.960626 55.8874118 129.069708 56.0115294 129.289047 56.0774118 129.401062 56.1097647 129.643272 56.1456471 130.015092 56.1827059L130.567543 56.2397647C130.89655 56.2750588 131.162806 56.3232941 131.36631 56.3838824 131.569227 56.4462353 131.749859 56.5321176 131.907618 56.6427059 132.065964 56.7574118 132.193227 56.9091765 132.285889 57.098 132.377964 57.2868235 132.424881 57.4874118 132.424881 57.7021176 132.424881 58.0409412 132.315798 58.3421176 132.097633 58.6056471 131.899994 58.8462353 131.592686 59.0238824 131.176881 59.1397647 130.867227 59.2268235 130.535287 59.2697647 130.180475 59.2697647 129.544159 59.2697647 128.914881 59.1168235 128.293814 58.8109412 128.163032 58.7497647 128.085032 58.7197647 128.058641 58.7197647 128.026971 58.7197647 127.979468 58.7450588 127.91437 58.7974118L127.811738 58.7438824 128.333693 57.5591765 128.435738 57.6085882 128.435738 57.6544706C128.435738 57.7609412 128.485588 57.8585882 128.587633 57.948 128.740114 58.0856471 128.975874 58.2027059 129.294911 58.3021176 129.614535 58.4003529 129.918325 58.4497647 130.205107 58.4497647 130.517107 58.4497647 130.783949 58.3974118 131.00446 58.2915294 131.127618 58.2332941 131.224385 58.1544706 131.297107 58.0574118 131.370415 57.9597647 131.406189 57.8574118 131.406189 57.7515294 131.406189 57.5915294 131.320565 57.478 131.149317 57.4103529 131.029678 57.3627059 130.787468 57.3191765 130.423272 57.2797647L129.880205 57.2227059C129.516009 57.1844706 129.259137 57.1485882 129.108415 57.1144706 128.95828 57.0797647 128.808144 57.0262353 128.657423 56.9503529 128.443362 56.8438824 128.275633 56.6844706 128.154235 56.4727059 128.042806 56.2809412 127.987678 56.0615294 127.987678 55.8138824 127.987678 55.4062353 128.127257 55.0697647 128.408174 54.8032941 128.774129 54.4509412 129.323648 54.2756471 130.056731 54.2756471 130.364626 54.2756471 130.651408 54.3068235 130.91649 54.3691765 131.182159 54.4321176 131.513513 54.5485882 131.909964 54.7156471 132.046611 54.7703529 132.129889 54.7974118 132.160385 54.7974118 132.210235 54.7974118 132.268295 54.7703529 132.332806 54.7156471L132.431919 54.7697647zM147.157732 57.0790588L144.383747 57.0790588 144.383747 58.8178824C144.383747 58.8884706 144.400755 58.9431765 144.435356 58.982 144.468785 59.0214118 144.526845 59.052 144.608364 59.0725882L144.608364 59.1855294 143.108183 59.1855294 143.108183 59.0725882C143.192635 59.0490588 143.251281 59.0184706 143.284123 58.9802353 143.316965 58.9425882 143.333386 58.8884706 143.333386 58.8178824L143.333386 54.7278824C143.333386 54.6572941 143.316965 54.6031765 143.284123 54.5655294 143.251281 54.5272941 143.192635 54.4967059 143.108183 54.4737647L143.108183 54.3608235 144.608364 54.3608235 144.608364 54.4737647C144.524499 54.4949412 144.465853 54.5243529 144.433011 54.5637647 144.399582 54.602 144.383747 54.6572941 144.383747 54.7278824L144.383747 56.2831765 147.157732 56.2831765 147.157732 54.7278824C147.157732 54.6572941 147.140725 54.602 147.108469 54.5637647 147.074454 54.5243529 147.016394 54.4949412 146.931356 54.4737647L146.931356 54.3608235 148.43271 54.3608235 148.43271 54.4737647C148.348259 54.4967059 148.289612 54.5272941 148.25677 54.5655294 148.223341 54.6031765 148.208093 54.6572941 148.208093 54.7278824L148.208093 58.8178824C148.208093 58.8884706 148.223341 58.9425882 148.25677 58.9802353 148.289612 59.0184706 148.348259 59.0490588 148.43271 59.0725882L148.43271 59.1855294 146.931356 59.1855294 146.931356 59.0725882C147.014048 59.052 147.072108 59.0214118 147.106123 58.982 147.140138 58.9431765 147.157732 58.8884706 147.157732 58.8178824L147.157732 57.0790588z"/>
      <path fill="#02A44F" d="M67.5054226,16.1401176 C67.5054226,20.0383529 64.343197,23.2095294 60.4566857,23.2095294 C56.5701744,23.2095294 53.4085353,20.0383529 53.4085353,16.1401176 C53.4085353,12.2418824 56.5701744,9.07011765 60.4566857,9.07011765 C62.3392421,9.07011765 64.1097835,9.80482353 65.4404752,11.1407059 C66.7723398,12.476 67.5054226,14.2512941 67.5054226,16.1401176"/>
      <path fill="#EA2227" d="M63.8062286,16.0452941 C63.8062286,17.9005882 62.3066346,19.4035294 60.4569203,19.4035294 C58.6077925,19.4035294 57.1093714,17.9005882 57.1093714,16.0452941 C57.1093714,14.1911765 58.6077925,12.6870588 60.4569203,12.6870588 C62.3066346,12.6870588 63.8062286,14.1911765 63.8062286,16.0452941"/>
      <path fill="#02A44F" d="M66.4865549,47.0917059 L65.834991,46.8199412 L65.3136226,46.547 L64.9247955,46.2758235 L64.6632316,45.7311176 L64.534209,45.1875882 L64.4034271,44.507 L64.2732316,43.8258235 L64.2732316,32.9428824 L64.2820286,32.9428824 L64.2820286,25.7781765 C64.2820286,25.7781765 63.6122842,26.5852353 60.5057729,26.6599412 C58.1687053,26.7152353 56.3283744,25.7781765 56.3283744,25.7781765 L56.3283744,43.8258235 L56.1964195,44.507 L56.1964195,45.1875882 L55.936615,45.7311176 L55.6762241,46.2758235 L55.2844647,46.547 L54.7636827,46.8199412 L54.1121188,47.0917059 L53.4617278,47.2287647 L53.4617278,48.7252353 L67.1381188,48.7252353 L67.1381188,47.2287647 L66.4865549,47.0917059 Z"/>
      <path fill="#231F20" d="M13.2870947,3.38129412 L13.3052752,3.38129412 L13.733982,3.38129412 L13.7521624,3.38129412 L13.8084632,3.38129412 L13.863591,3.41835294 C13.8829444,3.41835294 13.9011248,3.41835294 13.9011248,3.43717647 C13.9011248,3.45541176 13.9198917,3.45541176 13.9380722,3.45541176 C13.9380722,3.47423529 13.9574256,3.49305882 13.9574256,3.49305882 C13.975606,3.51188235 13.975606,3.51188235 13.9943729,3.53011765 C13.9943729,3.53011765 14.0125534,3.54894118 14.0125534,3.56776471 C14.0319068,3.56776471 14.0319068,3.58658824 14.0319068,3.58658824 C14.0500872,3.60482353 14.0500872,3.62364706 14.0688541,3.62364706 C14.0688541,3.64247059 14.0688541,3.66129412 14.0870346,3.66129412 L14.0870346,3.736 L14.1058015,3.77305882 L14.0870346,3.84776471 L14.0688541,3.90364706 L14.0319068,3.92247059 L13.9943729,3.95952941 C13.9380722,3.97835294 13.8454105,4.016 13.733982,4.05305882 C13.6219669,4.10894118 13.4917714,4.14658824 13.342809,4.20247059 C13.1756662,4.25835294 13.0079368,4.33305882 12.8595609,4.42658824 C12.6912451,4.53835294 12.5241023,4.65011765 12.3381925,4.79952941 C12.3194256,4.81835294 12.3006586,4.83717647 12.2818917,4.85541176 C12.2637113,4.87423529 12.2261774,4.89305882 12.2074105,4.91188235 C12.1892301,4.93011765 12.1704632,4.94894118 12.1516962,4.96776471 C12.1329293,4.98658824 12.1147489,5.00482353 12.1147489,5.00482353 C12.4126737,5.39717647 12.6730647,5.696 12.8965083,5.93835294 C13.1199519,6.18070588 13.3052752,6.34894118 13.4542376,6.44247059 C13.5850195,6.53541176 13.7146286,6.62894118 13.8084632,6.68482353 C13.9198917,6.75952941 13.9943729,6.81541176 14.0500872,6.87188235 L14.0870346,6.92776471 L14.1433353,6.96482353 C14.1433353,6.98364706 14.1433353,7.00247059 14.1058015,7.03952941 C14.0870346,7.05835294 14.0500872,7.09541176 14.0125534,7.11423529 C13.9574256,7.13305882 13.9011248,7.15188235 13.863591,7.18894118 C13.8084632,7.20776471 13.7521624,7.226 13.6964481,7.24482353 C13.6595008,7.24482353 13.6407338,7.26364706 13.6032,7.26364706 C13.5850195,7.26364706 13.5474857,7.26364706 13.5287188,7.28188235 L13.4917714,7.28188235 L13.4542376,7.28188235 L13.4172902,7.28188235 L13.3797564,7.28188235 L12.9522226,7.30070588 C12.8777414,7.30070588 12.7850797,7.26364706 12.7105985,7.20776471 C12.6167639,7.17011765 12.5422827,7.09541176 12.4496211,6.98364706 C12.3563729,6.89011765 12.2818917,6.79717647 12.1892301,6.68482353 C12.095982,6.57305882 12.0033203,6.44247059 11.9094857,6.31129412 C11.8913053,6.27423529 11.8543579,6.23658824 11.8168241,6.19952941 C11.7986436,6.16247059 11.7798767,6.12482353 11.7423429,6.106 C11.7235759,6.06894118 11.6866286,6.03129412 11.6678617,5.99423529 C11.6309143,5.95658824 11.6127338,5.91952941 11.5752,5.88247059 C11.5564331,5.86364706 11.5382526,5.84482353 11.5188992,5.80776471 C11.5188992,5.78894118 11.4819519,5.77070588 11.4637714,5.75188235 C11.444418,5.77070588 11.4262376,5.80776471 11.4074707,5.84482353 C11.3892902,5.88247059 11.3517564,5.90129412 11.3329895,5.93835294 C11.2954556,5.99423529 11.2585083,6.05011765 11.2403278,6.106 L11.1283128,6.27423529 C11.0725985,6.34894118 11.0350647,6.40482353 10.9981173,6.47952941 C10.9605835,6.53541176 10.9236361,6.59188235 10.9048692,6.666 L10.8679218,6.72247059 L10.8491549,6.75952941 C10.7564932,6.89011765 10.682012,7.02070588 10.6075308,7.15188235 C10.5136962,7.26364706 10.4585684,7.39423529 10.3840872,7.506 C10.309606,7.63658824 10.2351248,7.73011765 10.197591,7.80482353 C10.1424632,7.89835294 10.1049293,7.93541176 10.067982,7.97305882 L10.0116812,8.01011765 L9.97473383,8.02894118 L9.52784662,8.02894118 L9.49031278,8.01011765 L9.45336541,8.01011765 C9.41583158,7.99129412 9.39765113,7.97305882 9.36070376,7.95423529 C9.34135038,7.93541176 9.32316992,7.89835294 9.30440301,7.87952941 C9.26745564,7.86070588 9.24868872,7.84188235 9.2299218,7.82364706 C9.21174135,7.80482353 9.21174135,7.786 9.1935609,7.74894118 L9.17420752,7.69305882 L9.17420752,7.65541176 L9.17420752,7.59952941 L9.1935609,7.56188235 C9.24868872,7.48717647 9.30440301,7.39423529 9.36070376,7.31952941 C9.43518496,7.226 9.50966617,7.13305882 9.60232782,7.02070588 C9.67680902,6.92776471 9.77005714,6.81541176 9.8627188,6.70364706 C9.95596692,6.59188235 10.049215,6.47952941 10.1424632,6.36776471 L10.197591,6.31129412 L10.2351248,6.25541176 C10.309606,6.16247059 10.4028541,6.06894118 10.4767489,5.99423529 C10.5518165,5.90129412 10.6257113,5.80776471 10.682012,5.73305882 C10.7746737,5.63952941 10.8491549,5.56482353 10.9048692,5.49011765 C10.9793504,5.41541176 11.0350647,5.34129412 11.0725985,5.26658824 C10.8491549,5.00482353 10.6444782,4.79952941 10.440388,4.61305882 C10.2351248,4.42658824 10.049215,4.296 9.90025263,4.20247059 C9.73252331,4.10894118 9.58414737,4.016 9.47213233,3.94129412 C9.37888421,3.86658824 9.30440301,3.79188235 9.24868872,3.736 L9.21174135,3.66129412 L9.1935609,3.60482353 L9.1935609,3.58658824 L9.1935609,3.56776471 C9.21174135,3.54894118 9.2299218,3.53011765 9.24868872,3.53011765 C9.26745564,3.51188235 9.28622256,3.51188235 9.32316992,3.49305882 C9.36070376,3.49305882 9.39765113,3.47423529 9.43518496,3.47423529 L9.56479398,3.47423529 L9.99350075,3.47423529 L10.0304481,3.47423529 L10.067982,3.47423529 C10.0861624,3.47423529 10.1049293,3.49305882 10.1231098,3.49305882 L10.1606436,3.49305882 L10.197591,3.49305882 L10.2538917,3.49305882 L10.2914256,3.49305882 L10.3283729,3.49305882 C10.4028541,3.51188235 10.4585684,3.51188235 10.5330496,3.53011765 C10.5881774,3.54894118 10.6626586,3.56776471 10.7189594,3.58658824 C10.7746737,3.62364706 10.8309744,3.64247059 10.8861023,3.66129412 C10.9236361,3.67952941 10.9605835,3.69835294 10.9981173,3.736 C11.0725985,3.81011765 11.1470797,3.86658824 11.202794,3.94129412 C11.2585083,3.99717647 11.314809,4.05305882 11.3517564,4.10894118 C11.3892902,4.14658824 11.4262376,4.20247059 11.4819519,4.25835294 C11.5188992,4.31423529 11.5564331,4.35188235 11.5933805,4.38894118 L11.6127338,4.42658824 L11.6309143,4.44541176 C11.6496812,4.46364706 11.6678617,4.50070588 11.6866286,4.52011765 C11.7053955,4.53835294 11.7053955,4.55717647 11.7235759,4.576 L11.7423429,4.576 L11.7423429,4.55717647 C11.7986436,4.50070588 11.8543579,4.44541176 11.9094857,4.38894118 C11.9657865,4.33305882 12.0215008,4.27717647 12.077215,4.20247059 C12.1329293,4.18364706 12.1704632,4.14658824 12.2074105,4.09070588 C12.2637113,4.05305882 12.3006586,4.016 12.3563729,3.97835294 C12.3939068,3.94129412 12.4496211,3.90364706 12.4871549,3.86658824 C12.5422827,3.81011765 12.5798165,3.77305882 12.6361173,3.75423529 C12.6730647,3.71717647 12.6912451,3.69835294 12.7287789,3.67952941 C12.7475459,3.66129412 12.7850797,3.64247059 12.8032602,3.64247059 C12.8220271,3.62364706 12.8595609,3.58658824 12.8777414,3.58658824 C12.9146887,3.56776471 12.9334556,3.54894118 12.9709895,3.53011765 C13.0079368,3.51188235 13.0267038,3.49305882 13.0454707,3.49305882 C13.0818316,3.47423529 13.101185,3.45541176 13.1381323,3.43717647 C13.1563128,3.43717647 13.1756662,3.41835294 13.1938466,3.41835294 C13.230794,3.39952941 13.2501474,3.39952941 13.2870947,3.38129412 L13.2870947,3.38129412 Z M1.35837293,6.62894118 L1.61876391,1.16011765 C1.59999699,1.16011765 1.58181654,1.16011765 1.56304962,1.17835294 L1.52551579,1.17835294 C1.50733534,1.17835294 1.50733534,1.19717647 1.48856842,1.19717647 C1.47038797,1.19717647 1.45103459,1.19717647 1.43285414,1.216 L1.41408722,1.216 L1.39590677,1.216 C1.33960602,1.23482353 1.26571128,1.27188235 1.22817744,1.29070588 C1.17246316,1.30952941 1.11674887,1.32776471 1.06044812,1.34658824 C1.0053203,1.36541176 0.967786466,1.38364706 0.930839098,1.38364706 C0.893305263,1.40247059 0.874538346,1.42129412 0.856357895,1.42129412 L0.837004511,1.44011765 L0.81882406,1.44011765 L0.800057143,1.44011765 L0.372523308,1.44011765 L0.353169925,1.44011765 L0.316222556,1.44011765 L0.260508271,1.42129412 C0.223560902,1.42129412 0.186027068,1.40247059 0.16726015,1.36541176 C0.129726316,1.34658824 0.0927789474,1.32776471 0.0745984962,1.29070588 C0.0552451128,1.25305882 0.0370646617,1.23482353 0.0182977444,1.19717647 C0.0182977444,1.16011765 0.000117293233,1.12247059 0.000117293233,1.08541176 L0.000117293233,1.06658824 L0.000117293233,1.04776471 L0.000117293233,1.02894118 L0.000117293233,1.01070588 C0.0552451128,0.954823529 0.111545865,0.917176471 0.186027068,0.880117647 C0.260508271,0.842470588 0.353169925,0.823647059 0.465184962,0.805411765 L0.800057143,0.748941176 C0.911485714,0.730705882 1.04226767,0.711882353 1.15428271,0.711882353 L1.17246316,0.711882353 L1.19123008,0.711882353 L1.30265865,0.711882353 C1.33960602,0.693058824 1.37655338,0.693058824 1.41408722,0.693058824 C1.45103459,0.674235294 1.48856842,0.674235294 1.52551579,0.674235294 C1.54486917,0.674235294 1.58181654,0.656 1.61876391,0.656 L1.69324511,0.637176471 L1.69324511,0.600117647 L1.69324511,0.544235294 L1.69324511,0.488352941 L1.6744782,0.431882353 L1.6744782,0.394823529 L1.6744782,0.357176471 L1.6744782,0.301294118 L1.6744782,0.264235294 C1.6744782,0.245411765 1.6744782,0.226588235 1.69324511,0.207764706 L1.69324511,0.151882353 L1.7489594,0.114823529 L1.76772632,0.114823529 C1.78649323,0.114823529 1.78649323,0.114823529 1.80526015,0.096 L1.8234406,0.096 L1.86097444,0.096 L2.28909474,0.096 C2.30727519,0.096 2.32662857,0.114823529 2.34480902,0.114823529 C2.36357594,0.114823529 2.40110977,0.114823529 2.41929023,0.133647059 C2.45623759,0.133647059 2.47500451,0.151882353 2.51253835,0.151882353 C2.54948571,0.170705882 2.56825263,0.189529412 2.6052,0.207764706 C2.62338045,0.226588235 2.64273383,0.245411765 2.66091429,0.264235294 C2.69786165,0.282470588 2.71721504,0.320117647 2.75416241,0.357176471 L2.77234286,0.376 C2.79169624,0.394823529 2.79169624,0.413647059 2.80987669,0.413647059 C2.80987669,0.431882353 2.82864361,0.431882353 2.82864361,0.450705882 C2.84682406,0.450705882 2.84682406,0.469529412 2.86559098,0.488352941 C2.90312481,0.469529412 2.9588391,0.469529412 3.01455338,0.469529412 C3.07026767,0.469529412 3.14474887,0.450705882 3.20104962,0.450705882 C3.36819248,0.431882353 3.5359218,0.431882353 3.70306466,0.413647059 L4.24261353,0.413647059 L4.6713203,0.413647059 L4.72644812,0.413647059 L4.78274887,0.413647059 L5.32229774,0.413647059 C5.50820752,0.413647059 5.67535038,0.431882353 5.84366617,0.431882353 C5.93632782,0.450705882 6.01080902,0.450705882 6.08529023,0.450705882 C6.15977143,0.469529412 6.23425263,0.469529412 6.30873383,0.469529412 L6.49464361,0.469529412 C6.55035789,0.488352941 6.60607218,0.488352941 6.64360602,0.488352941 C6.68055338,0.506588235 6.71808722,0.506588235 6.75503459,0.506588235 C6.79256842,0.506588235 6.81074887,0.525411765 6.84828271,0.525411765 C6.88523008,0.525411765 6.92217744,0.544235294 6.95971128,0.544235294 C6.99665865,0.544235294 7.01601203,0.544235294 7.0529594,0.562470588 C7.2019218,0.581294118 7.33211729,0.637176471 7.46231278,0.693058824 C7.59250827,0.748941176 7.70393684,0.823647059 7.8347188,0.898352941 C7.94673383,0.991882353 8.03939549,1.08541176 8.09452331,1.216 C8.15082406,1.34658824 8.18835789,1.496 8.18835789,1.66423529 L8.18835789,1.70129412 L8.18835789,1.72011765 L8.18835789,1.75717647 L8.18835789,1.776 C8.13205714,2.09305882 8.03939549,2.37305882 7.89043308,2.616 C7.72329023,2.85835294 7.51802707,3.06364706 7.25763609,3.21305882 C6.99665865,3.38129412 6.73626767,3.51188235 6.45710977,3.62364706 C6.1967188,3.71717647 5.89879398,3.81011765 5.62022256,3.86658824 C5.4894406,3.88482353 5.37801203,3.90364706 5.26599699,3.92247059 C5.13638797,3.94129412 5.02437293,3.94129412 4.91294436,3.95952941 C4.80092932,3.97835294 4.68950075,3.97835294 4.57748571,3.97835294 L4.26138045,3.97835294 C4.33586165,4.05305882 4.42910977,4.14658824 4.54053835,4.23952941 C4.63378647,4.35188235 4.76398195,4.46364706 4.89417744,4.59482353 C5.04313985,4.72482353 5.19210226,4.85541176 5.3404782,4.98658824 C5.4894406,5.11717647 5.65716992,5.24776471 5.82431278,5.37835294 C5.86184662,5.41541176 5.89879398,5.45305882 5.95509474,5.49011765 C5.99262857,5.52776471 6.02957594,5.56482353 6.08529023,5.60247059 C6.10405714,5.62129412 6.12223759,5.63952941 6.14100451,5.65835294 C6.15977143,5.67717647 6.1967188,5.696 6.21548571,5.71423529 C6.23425263,5.73305882 6.25301955,5.75188235 6.28996692,5.77070588 C6.30873383,5.78894118 6.32750075,5.80776471 6.3456812,5.80776471 C6.55035789,5.97541176 6.75503459,6.12482353 6.95971128,6.25541176 C7.14562105,6.40482353 7.33211729,6.53541176 7.51802707,6.64776471 C7.70393684,6.75952941 7.87166617,6.85305882 8.02062857,6.90894118 C8.16900451,6.96482353 8.28101955,6.98364706 8.37426767,6.98364706 L7.94673383,7.00247059 C7.94673383,6.98364706 7.96491429,6.98364706 7.96491429,6.98364706 L7.98309474,6.98364706 L8.00186165,6.98364706 L8.02062857,6.98364706 L8.09452331,6.96482353 L8.52323008,6.96482353 C8.54141053,6.96482353 8.56017744,6.98364706 8.57894436,7.00247059 C8.57894436,7.02070588 8.57894436,7.05835294 8.56017744,7.07717647 C8.54141053,7.11423529 8.52323008,7.15188235 8.50446316,7.18894118 C8.46692932,7.226 8.42998195,7.26364706 8.39244812,7.30070588 C8.37426767,7.31952941 8.35550075,7.33835294 8.3373203,7.35658824 C8.31796692,7.37541176 8.29978647,7.39423529 8.2628391,7.41305882 C8.2628391,7.43129412 8.24348571,7.43129412 8.22530526,7.45011765 C8.20653835,7.45011765 8.20653835,7.45011765 8.18835789,7.46894118 C8.18835789,7.48717647 8.16900451,7.48717647 8.15082406,7.506 C8.15082406,7.506 8.13205714,7.52482353 8.11387669,7.52482353 C8.11387669,7.54364706 8.09452331,7.54364706 8.07634286,7.54364706 C8.05757594,7.56188235 8.03939549,7.56188235 8.03939549,7.56188235 C8.02062857,7.56188235 8.00186165,7.58070588 7.98309474,7.58070588 C7.98309474,7.58070588 7.96491429,7.59952941 7.94673383,7.59952941 C7.90861353,7.61835294 7.89043308,7.63658824 7.87166617,7.63658824 C7.85289925,7.63658824 7.8347188,7.65541176 7.79777143,7.65541176 L7.36906466,7.65541176 L7.35088421,7.65541176 L7.33211729,7.65541176 L7.31335038,7.65541176 C7.18315489,7.56188235 7.03419248,7.45011765 6.84828271,7.31952941 C6.68055338,7.20776471 6.47646316,7.05835294 6.23425263,6.89011765 C5.99262857,6.74070588 5.76918496,6.55423529 5.50820752,6.36776471 C5.26599699,6.18070588 5.02437293,5.99423529 4.76398195,5.78894118 C4.7458015,5.77070588 4.70826767,5.75188235 4.68950075,5.73305882 C4.6713203,5.71423529 4.65196692,5.696 4.63378647,5.67717647 C4.61501955,5.67717647 4.5968391,5.65835294 4.57748571,5.63952941 C4.55930526,5.62129412 4.54053835,5.60247059 4.50300451,5.58364706 C4.48482406,5.56482353 4.46605714,5.56482353 4.44787669,5.54658824 C4.42910977,5.52776471 4.41034286,5.50894118 4.39157594,5.47188235 C4.37339549,5.47188235 4.35462857,5.45305882 4.31709474,5.43423529 C4.29891429,5.41541176 4.28014737,5.39717647 4.26138045,5.37835294 C4.09365113,5.22894118 3.92650827,5.09835294 3.75936541,4.96776471 C3.59163609,4.83717647 3.42449323,4.68776471 3.27553083,4.55717647 C3.1078015,4.42658824 2.9588391,4.296 2.82864361,4.18364706 C2.69786165,4.05305882 2.56825263,3.94129412 2.47500451,3.82894118 C2.51253835,3.77305882 2.56825263,3.736 2.62338045,3.69835294 C2.6796812,3.66129412 2.73539549,3.64247059 2.77234286,3.62364706 C2.84682406,3.60482353 2.90312481,3.60482353 2.94007218,3.58658824 C2.99578647,3.58658824 3.05208722,3.56776471 3.1078015,3.56776471 L3.55410226,3.56776471 L3.59163609,3.56776471 L3.64735038,3.56776471 C3.66611729,3.58658824 3.68488421,3.58658824 3.70306466,3.58658824 L3.75936541,3.58658824 C3.79631278,3.58658824 3.83326015,3.58658824 3.87079398,3.60482353 L4.00098947,3.60482353 C4.03793684,3.60482353 4.07547068,3.62364706 4.11241805,3.62364706 C4.16813233,3.64247059 4.20566617,3.64247059 4.24261353,3.64247059 L4.28014737,3.64247059 L4.29891429,3.64247059 L4.31709474,3.64247059 L4.33586165,3.64247059 L4.39157594,3.64247059 L4.44787669,3.64247059 C4.46605714,3.64247059 4.48482406,3.64247059 4.50300451,3.62364706 L4.57748571,3.62364706 C4.65196692,3.62364706 4.7458015,3.60482353 4.83846316,3.60482353 C4.91294436,3.58658824 5.00619248,3.56776471 5.09885414,3.54894118 C5.24781654,3.51188235 5.4149594,3.47423529 5.5639218,3.41835294 C5.71288421,3.34364706 5.86184662,3.28776471 5.99262857,3.19423529 C6.14100451,3.12011765 6.2712,3.00776471 6.40198195,2.87717647 C6.53159098,2.76541176 6.6248391,2.616 6.71808722,2.44776471 C6.75503459,2.41070588 6.7738015,2.35423529 6.79256842,2.31717647 C6.82951579,2.26129412 6.82951579,2.22364706 6.84828271,2.16776471 C6.86704962,2.13070588 6.86704962,2.09305882 6.86704962,2.03717647 C6.86704962,1.99952941 6.88523008,1.96247059 6.88523008,1.90658824 C6.88523008,1.75717647 6.82951579,1.60776471 6.75503459,1.496 C6.68055338,1.36541176 6.56912481,1.25305882 6.42016241,1.16011765 C6.25301955,1.08541176 6.08529023,1.01070588 5.91814737,0.936 C5.74983158,0.880117647 5.5639218,0.823647059 5.37801203,0.767764706 C5.28476391,0.748941176 5.17333534,0.730705882 5.08067368,0.730705882 C4.96865865,0.711882353 4.87541053,0.693058824 4.76398195,0.693058824 C4.72644812,0.674235294 4.68950075,0.674235294 4.63378647,0.674235294 L4.50300451,0.674235294 L4.48482406,0.674235294 L4.42910977,0.674235294 L4.37339549,0.674235294 L4.31709474,0.674235294 L4.28014737,0.674235294 C4.18689925,0.693058824 4.09365113,0.693058824 4.01916992,0.711882353 C3.94468872,0.711882353 3.87079398,0.730705882 3.77754586,0.748941176 C3.70306466,0.748941176 3.62858346,0.767764706 3.55410226,0.767764706 C3.47962105,0.786588235 3.40513985,0.786588235 3.35001203,0.805411765 C3.29371128,0.823647059 3.23799699,0.823647059 3.20104962,0.842470588 C3.14474887,0.842470588 3.08903459,0.861294118 3.05208722,0.880117647 C3.01455338,0.880117647 2.9588391,0.880117647 2.92130526,0.898352941 C2.88435789,0.898352941 2.84682406,0.917176471 2.80987669,0.917176471 C2.79169624,1.23482353 2.77234286,1.53305882 2.75416241,1.85070588 C2.75416241,2.16776471 2.73539549,2.46658824 2.71721504,2.76541176 C2.71721504,3.08247059 2.69786165,3.38129412 2.69786165,3.66129412 C2.6796812,3.95952941 2.6796812,4.23952941 2.6796812,4.52011765 L2.6796812,5.17305882 C2.6796812,5.37835294 2.6796812,5.60247059 2.69786165,5.80776471 C2.69786165,6.01305882 2.71721504,6.19952941 2.71721504,6.386 C2.71721504,6.59188235 2.73539549,6.77835294 2.73539549,6.96482353 C2.73539549,6.96482353 2.71721504,6.98364706 2.69786165,7.00247059 C2.6796812,7.00247059 2.66091429,7.02070588 2.66091429,7.02070588 C2.62338045,7.03952941 2.6052,7.03952941 2.58643308,7.03952941 C2.56825263,7.05835294 2.54948571,7.05835294 2.5307188,7.05835294 L2.08383158,7.05835294 L2.06565113,7.05835294 L2.02870376,7.05835294 C2.02870376,7.03952941 2.00993684,7.03952941 2.00993684,7.03952941 L1.97240301,7.03952941 C1.95422256,7.03952941 1.93545564,7.02070588 1.91668872,7.02070588 C1.8979218,7.02070588 1.87974135,7.02070588 1.86097444,7.00247059 C1.80526015,7.00247059 1.76772632,6.98364706 1.73077895,6.96482353 C1.6744782,6.94658824 1.63753083,6.92776471 1.59999699,6.90894118 C1.56304962,6.89011765 1.52551579,6.87188235 1.48856842,6.83423529 C1.47038797,6.81541176 1.43285414,6.77835294 1.41408722,6.75952941 L1.37655338,6.70364706 L1.35837293,6.64776471 L1.35837293,6.62894118 Z"/>
      <polygon fill="#231F20" points="151.839 6.551 151.839 7.226 150.703 7.226 150.703 10.362 149.903 10.362 149.903 7.226 148.761 7.226 148.761 6.551"/>
      <path fill="#231F20" d="M154.822493,6.55111765 L155.964929,6.55111765 L155.964929,10.3617059 L155.225395,10.3617059 L155.225395,7.78405882 C155.225395,7.70994118 155.225982,7.60641176 155.227741,7.47229412 C155.229501,7.33935294 155.230087,7.23641176 155.230087,7.16405882 L154.510493,10.3617059 L153.738704,10.3617059 L153.024388,7.16405882 C153.024388,7.23641176 153.025561,7.33935294 153.026734,7.47229412 C153.028493,7.60641176 153.02908,7.70994118 153.02908,7.78405882 L153.02908,10.3617059 L152.290132,10.3617059 L152.290132,6.55111765 L153.444884,6.55111765 L154.136328,9.547 L154.822493,6.55111765 Z"/>
    </g>
    <path fill="#3D3D3D" fill-rule="nonzero" d="M6.528,76 L1.136,76 L1.136,65.328 L6.384,65.328 C8.352,65.328 9.424,66.544 9.424,68.048 C9.424,69.376 8.56,70.288 7.568,70.496 C8.72,70.672 9.632,71.808 9.632,73.104 C9.632,74.768 8.544,76 6.528,76 Z M6.016,69.728 C6.96,69.728 7.504,69.168 7.504,68.352 C7.504,67.568 6.96,66.976 6.016,66.976 L3.008,66.976 L3.008,69.728 L6.016,69.728 Z M6.096,74.352 C7.104,74.352 7.712,73.792 7.712,72.864 C7.712,72.064 7.152,71.376 6.096,71.376 L3.008,71.376 L3.008,74.352 L6.096,74.352 Z M13.913143,76.192 C11.577143,76.192 9.865143,74.576 9.865143,72.128 C9.865143,69.888 11.497143,68.08 13.785143,68.08 C16.105143,68.08 17.577143,69.84 17.577143,72.272 L17.577143,72.688 L11.625143,72.688 C11.753143,73.84 12.617143,74.816 14.073143,74.816 C14.841143,74.816 15.721143,74.512 16.281143,73.952 L17.049143,75.056 C16.265143,75.792 15.129143,76.192 13.913143,76.192 Z M15.961143,71.488 C15.913143,70.576 15.289143,69.456 13.769143,69.456 C12.345143,69.456 11.673143,70.56 11.609143,71.488 L15.961143,71.488 Z M20.434286,76.192 C19.122286,76.192 18.450286,75.488 18.450286,74.192 L18.450286,69.728 L17.170286,69.728 L17.170286,68.272 L18.450286,68.272 L18.450286,66.16 L20.130286,66.16 L20.130286,68.272 L21.698286,68.272 L21.698286,69.728 L20.130286,69.728 L20.130286,73.776 C20.130286,74.304 20.386286,74.704 20.866286,74.704 C21.186286,74.704 21.474286,74.56 21.602286,74.416 L22.002286,75.696 C21.698286,75.968 21.202286,76.192 20.434286,76.192 Z M24.395429,76.192 C23.083429,76.192 22.411429,75.488 22.411429,74.192 L22.411429,69.728 L21.131429,69.728 L21.131429,68.272 L22.411429,68.272 L22.411429,66.16 L24.091429,66.16 L24.091429,68.272 L25.659429,68.272 L25.659429,69.728 L24.091429,69.728 L24.091429,73.776 C24.091429,74.304 24.347429,74.704 24.827429,74.704 C25.147429,74.704 25.435429,74.56 25.563429,74.416 L25.963429,75.696 C25.659429,75.968 25.163429,76.192 24.395429,76.192 Z M29.604572,76.192 C27.268572,76.192 25.556572,74.576 25.556572,72.128 C25.556572,69.888 27.188572,68.08 29.476572,68.08 C31.796572,68.08 33.268572,69.84 33.268572,72.272 L33.268572,72.688 L27.316572,72.688 C27.444572,73.84 28.308572,74.816 29.764572,74.816 C30.532572,74.816 31.412572,74.512 31.972572,73.952 L32.740572,75.056 C31.956572,75.792 30.820572,76.192 29.604572,76.192 Z M31.652572,71.488 C31.604572,70.576 30.980572,69.456 29.460572,69.456 C28.036572,69.456 27.364572,70.56 27.300572,71.488 L31.652572,71.488 Z M35.469715,76 L33.789715,76 L33.789715,68.272 L35.469715,68.272 L35.469715,69.392 C36.061715,68.656 36.989715,68.08 37.981715,68.08 L37.981715,69.744 C37.837715,69.712 37.677715,69.696 37.469715,69.696 C36.749715,69.696 35.805715,70.176 35.469715,70.736 L35.469715,76 Z M48.096001,76 L46.416001,76 L46.416001,71.136 C46.416001,69.92 45.808001,69.568 44.864001,69.568 C44.000001,69.568 43.264001,70.08 42.880001,70.592 L42.880001,76 L41.200001,76 L41.200001,65.328 L42.880001,65.328 L42.880001,69.312 C43.392001,68.704 44.384001,68.08 45.600001,68.08 C47.264001,68.08 48.096001,68.944 48.096001,70.528 L48.096001,76 Z M52.713144,76.192 C50.377144,76.192 48.665144,74.576 48.665144,72.128 C48.665144,69.888 50.297144,68.08 52.585144,68.08 C54.905144,68.08 56.377144,69.84 56.377144,72.272 L56.377144,72.688 L50.425144,72.688 C50.553144,73.84 51.417144,74.816 52.873144,74.816 C53.641144,74.816 54.521144,74.512 55.081144,73.952 L55.849144,75.056 C55.065144,75.792 53.929144,76.192 52.713144,76.192 Z M54.761144,71.488 C54.713144,70.576 54.089144,69.456 52.569144,69.456 C51.145144,69.456 50.473144,70.56 50.409144,71.488 L54.761144,71.488 Z M63.314287,76 L61.634287,76 L61.634287,75.152 C61.058287,75.824 60.146287,76.192 59.122287,76.192 C57.874287,76.192 56.450287,75.328 56.450287,73.632 C56.450287,71.84 57.858287,71.104 59.122287,71.104 C60.178287,71.104 61.058287,71.44 61.634287,72.096 L61.634287,70.944 C61.634287,70.048 60.882287,69.504 59.826287,69.504 C58.962287,69.504 58.194287,69.824 57.538287,70.496 L56.834287,69.328 C57.730287,68.464 58.850287,68.08 60.082287,68.08 C61.810287,68.08 63.314287,68.8 63.314287,70.864 L63.314287,76 Z M59.794287,75.04 C60.514287,75.04 61.234287,74.768 61.634287,74.24 L61.634287,73.056 C61.234287,72.528 60.514287,72.256 59.794287,72.256 C58.850287,72.256 58.130287,72.816 58.130287,73.648 C58.130287,74.496 58.850287,75.04 59.794287,75.04 Z M66.02743,76 L64.34743,76 L64.34743,65.328 L66.02743,65.328 L66.02743,76 Z M69.396573,76.192 C68.084573,76.192 67.412573,75.488 67.412573,74.192 L67.412573,69.728 L66.132573,69.728 L66.132573,68.272 L67.412573,68.272 L67.412573,66.16 L69.092573,66.16 L69.092573,68.272 L70.660573,68.272 L70.660573,69.728 L69.092573,69.728 L69.092573,73.776 C69.092573,74.304 69.348573,74.704 69.828573,74.704 C70.148573,74.704 70.436573,74.56 70.564573,74.416 L70.964573,75.696 C70.660573,75.968 70.164573,76.192 69.396573,76.192 Z M77.933716,76 L76.253716,76 L76.253716,71.136 C76.253716,69.92 75.645716,69.568 74.701716,69.568 C73.837716,69.568 73.101716,70.08 72.717716,70.592 L72.717716,76 L71.037716,76 L71.037716,65.328 L72.717716,65.328 L72.717716,69.312 C73.229716,68.704 74.221716,68.08 75.437716,68.08 C77.101716,68.08 77.933716,68.944 77.933716,70.528 L77.933716,76 Z M80.566859,72.72 L79.110859,72.72 L78.806859,65.328 L80.854859,65.328 L80.566859,72.72 Z M79.846859,76.16 C79.238859,76.16 78.726859,75.648 78.726859,75.04 C78.726859,74.448 79.238859,73.936 79.846859,73.936 C80.454859,73.936 80.950859,74.448 80.950859,75.04 C80.950859,75.648 80.454859,76.16 79.846859,76.16 Z M86.633145,76 L84.761145,76 L84.761145,65.328 L89.465145,65.328 C91.705145,65.328 92.937145,66.848 92.937145,68.672 C92.937145,70.48 91.689145,72 89.465145,72 L86.633145,72 L86.633145,76 Z M89.209145,70.352 C90.265145,70.352 91.017145,69.68 91.017145,68.672 C91.017145,67.648 90.265145,66.976 89.209145,66.976 L86.633145,66.976 L86.633145,70.352 L89.209145,70.352 Z M96.578288,76.192 C94.114288,76.192 92.610288,74.336 92.610288,72.128 C92.610288,69.904 94.114288,68.08 96.578288,68.08 C99.042288,68.08 100.546288,69.904 100.546288,72.128 C100.546288,74.336 99.042288,76.192 96.578288,76.192 Z M96.578288,74.704 C98.018288,74.704 98.802288,73.504 98.802288,72.128 C98.802288,70.768 98.018288,69.568 96.578288,69.568 C95.154288,69.568 94.354288,70.768 94.354288,72.128 C94.354288,73.504 95.154288,74.704 96.578288,74.704 Z M109.627431,76 L107.867431,76 L106.059431,70.336 L104.267431,76 L102.507431,76 L100.107431,68.272 L101.851431,68.272 L103.483431,73.888 L105.323431,68.272 L106.811431,68.272 L108.635431,73.888 L110.267431,68.272 L112.027431,68.272 L109.627431,76 Z M115.636574,76.192 C113.300574,76.192 111.588574,74.576 111.588574,72.128 C111.588574,69.888 113.220574,68.08 115.508574,68.08 C117.828574,68.08 119.300574,69.84 119.300574,72.272 L119.300574,72.688 L113.348574,72.688 C113.476574,73.84 114.340574,74.816 115.796574,74.816 C116.564574,74.816 117.444574,74.512 118.004574,73.952 L118.772574,75.056 C117.988574,75.792 116.852574,76.192 115.636574,76.192 Z M117.684574,71.488 C117.636574,70.576 117.012574,69.456 115.492574,69.456 C114.068574,69.456 113.396574,70.56 113.332574,71.488 L117.684574,71.488 Z M121.501717,76 L119.821717,76 L119.821717,68.272 L121.501717,68.272 L121.501717,69.392 C122.093717,68.656 123.021717,68.08 124.013717,68.08 L124.013717,69.744 C123.869717,69.712 123.709717,69.696 123.501717,69.696 C122.781717,69.696 121.837717,70.176 121.501717,70.736 L121.501717,76 Z M127.81486,76.192 C125.47886,76.192 123.76686,74.576 123.76686,72.128 C123.76686,69.888 125.39886,68.08 127.68686,68.08 C130.00686,68.08 131.47886,69.84 131.47886,72.272 L131.47886,72.688 L125.52686,72.688 C125.65486,73.84 126.51886,74.816 127.97486,74.816 C128.74286,74.816 129.62286,74.512 130.18286,73.952 L130.95086,75.056 C130.16686,75.792 129.03086,76.192 127.81486,76.192 Z M129.86286,71.488 C129.81486,70.576 129.19086,69.456 127.67086,69.456 C126.24686,69.456 125.57486,70.56 125.51086,71.488 L129.86286,71.488 Z M139.120003,76 L137.440003,76 L137.440003,74.944 C136.848003,75.712 135.968003,76.192 134.960003,76.192 C132.992003,76.192 131.536003,74.688 131.536003,72.128 C131.536003,69.632 132.976003,68.08 134.960003,68.08 C135.936003,68.08 136.832003,68.512 137.440003,69.344 L137.440003,65.328 L139.120003,65.328 L139.120003,76 Z M135.456003,74.704 C136.240003,74.704 137.072003,74.24 137.440003,73.664 L137.440003,70.608 C137.072003,70.032 136.240003,69.568 135.456003,69.568 C134.112003,69.568 133.264003,70.64 133.264003,72.128 C133.264003,73.632 134.112003,74.704 135.456003,74.704 Z M144.818289,73.68 C145.202289,74.256 146.018289,74.704 146.818289,74.704 C148.146289,74.704 148.994289,73.632 148.994289,72.128 C148.994289,70.64 148.146289,69.568 146.818289,69.568 C146.018289,69.568 145.202289,70.032 144.818289,70.608 L144.818289,73.68 Z M144.818289,76 L143.138289,76 L143.138289,65.328 L144.818289,65.328 L144.818289,69.344 C145.442289,68.512 146.338289,68.08 147.298289,68.08 C149.298289,68.08 150.738289,69.632 150.738289,72.128 C150.738289,74.688 149.282289,76.192 147.298289,76.192 C146.306289,76.192 145.410289,75.712 144.818289,74.944 L144.818289,76 Z M150.971432,79.024 L151.211432,77.52 C151.387432,77.6 151.659432,77.648 151.851432,77.648 C152.395432,77.648 152.747432,77.488 152.971432,76.976 L153.355432,76.096 L150.171432,68.272 L151.979432,68.272 L154.235432,74.064 L156.491432,68.272 L158.283432,68.272 L154.555432,77.392 C154.027432,78.704 153.115432,79.12 151.915432,79.136 C151.675432,79.136 151.195432,79.088 150.971432,79.024 Z M163.101718,76 L161.229718,76 L161.229718,65.328 L163.101718,65.328 L163.101718,76 Z M171.094861,76 L169.414861,76 L169.414861,71.168 C169.414861,69.952 168.790861,69.568 167.846861,69.568 C166.998861,69.568 166.262861,70.08 165.862861,70.592 L165.862861,76 L164.182861,76 L164.182861,68.272 L165.862861,68.272 L165.862861,69.312 C166.374861,68.704 167.382861,68.08 168.598861,68.08 C170.262861,68.08 171.094861,68.976 171.094861,70.56 L171.094861,76 Z M174.224004,76 L172.544004,76 L172.544004,69.728 L171.264004,69.728 L171.264004,68.272 L172.544004,68.272 L172.544004,67.84 C172.544004,66.16 173.520004,65.168 174.976004,65.168 C175.680004,65.168 176.368004,65.344 176.832004,65.84 L176.176004,66.88 C175.952004,66.672 175.664004,66.544 175.296004,66.544 C174.624004,66.544 174.224004,66.976 174.224004,67.84 L174.224004,68.272 L175.792004,68.272 L175.792004,69.728 L174.224004,69.728 L174.224004,76 Z M179.433147,76.192 C176.969147,76.192 175.465147,74.336 175.465147,72.128 C175.465147,69.904 176.969147,68.08 179.433147,68.08 C181.897147,68.08 183.401147,69.904 183.401147,72.128 C183.401147,74.336 181.897147,76.192 179.433147,76.192 Z M179.433147,74.704 C180.873147,74.704 181.657147,73.504 181.657147,72.128 C181.657147,70.768 180.873147,69.568 179.433147,69.568 C178.009147,69.568 177.209147,70.768 177.209147,72.128 C177.209147,73.504 178.009147,74.704 179.433147,74.704 Z M185.65029,76 L183.97029,76 L183.97029,68.272 L185.65029,68.272 L185.65029,69.392 C186.24229,68.656 187.17029,68.08 188.16229,68.08 L188.16229,69.744 C188.01829,69.712 187.85829,69.696 187.65029,69.696 C186.93029,69.696 185.98629,70.176 185.65029,70.736 L185.65029,76 Z M199.547433,76 L197.867433,76 L197.867433,70.96 C197.867433,70.128 197.499433,69.568 196.587433,69.568 C195.835433,69.568 195.131433,70.08 194.795433,70.592 L194.795433,76 L193.115433,76 L193.115433,70.96 C193.115433,70.128 192.763433,69.568 191.851433,69.568 C191.099433,69.568 190.411433,70.096 190.059433,70.592 L190.059433,76 L188.379433,76 L188.379433,68.272 L190.059433,68.272 L190.059433,69.312 C190.395433,68.848 191.403433,68.08 192.587433,68.08 C193.739433,68.08 194.443433,68.656 194.699433,69.488 C195.131433,68.8 196.155433,68.08 197.323433,68.08 C198.731433,68.08 199.547433,68.848 199.547433,70.416 L199.547433,76 Z M206.996576,76 L205.316576,76 L205.316576,75.152 C204.740576,75.824 203.828576,76.192 202.804576,76.192 C201.556576,76.192 200.132576,75.328 200.132576,73.632 C200.132576,71.84 201.540576,71.104 202.804576,71.104 C203.860576,71.104 204.740576,71.44 205.316576,72.096 L205.316576,70.944 C205.316576,70.048 204.564576,69.504 203.508576,69.504 C202.644576,69.504 201.876576,69.824 201.220576,70.496 L200.516576,69.328 C201.412576,68.464 202.532576,68.08 203.764576,68.08 C205.492576,68.08 206.996576,68.8 206.996576,70.864 L206.996576,76 Z M203.476576,75.04 C204.196576,75.04 204.916576,74.768 205.316576,74.24 L205.316576,73.056 C204.916576,72.528 204.196576,72.256 203.476576,72.256 C202.532576,72.256 201.812576,72.816 201.812576,73.648 C201.812576,74.496 202.532576,75.04 203.476576,75.04 Z M210.365719,76.192 C209.053719,76.192 208.381719,75.488 208.381719,74.192 L208.381719,69.728 L207.101719,69.728 L207.101719,68.272 L208.381719,68.272 L208.381719,66.16 L210.061719,66.16 L210.061719,68.272 L211.629719,68.272 L211.629719,69.728 L210.061719,69.728 L210.061719,73.776 C210.061719,74.304 210.317719,74.704 210.797719,74.704 C211.117719,74.704 211.405719,74.56 211.533719,74.416 L211.933719,75.696 C211.629719,75.968 211.133719,76.192 210.365719,76.192 Z M212.838862,67.328 C212.262862,67.328 211.798862,66.864 211.798862,66.288 C211.798862,65.712 212.262862,65.248 212.838862,65.248 C213.414862,65.248 213.878862,65.712 213.878862,66.288 C213.878862,66.864 213.414862,67.328 212.838862,67.328 Z M213.670862,76 L211.990862,76 L211.990862,68.272 L213.670862,68.272 L213.670862,76 Z M218.208005,76.192 C215.744005,76.192 214.240005,74.336 214.240005,72.128 C214.240005,69.904 215.744005,68.08 218.208005,68.08 C220.672005,68.08 222.176005,69.904 222.176005,72.128 C222.176005,74.336 220.672005,76.192 218.208005,76.192 Z M218.208005,74.704 C219.648005,74.704 220.432005,73.504 220.432005,72.128 C220.432005,70.768 219.648005,69.568 218.208005,69.568 C216.784005,69.568 215.984005,70.768 215.984005,72.128 C215.984005,73.504 216.784005,74.704 218.208005,74.704 Z M229.657148,76 L227.977148,76 L227.977148,71.168 C227.977148,69.952 227.353148,69.568 226.409148,69.568 C225.561148,69.568 224.825148,70.08 224.425148,70.592 L224.425148,76 L222.745148,76 L222.745148,68.272 L224.425148,68.272 L224.425148,69.312 C224.937148,68.704 225.945148,68.08 227.161148,68.08 C228.825148,68.08 229.657148,68.976 229.657148,70.56 L229.657148,76 Z M231.570291,76.176 C230.962291,76.176 230.450291,75.648 230.450291,75.04 C230.450291,74.448 230.962291,73.936 231.570291,73.936 C232.178291,73.936 232.690291,74.448 232.690291,75.04 C232.690291,75.648 232.178291,76.176 231.570291,76.176 Z"/>
  </g>
</svg>
