<?xml version="1.0" encoding="UTF-8" standalone="no"?>
<!-- Created with Inkscape (http://www.inkscape.org/) -->

<svg
   xmlns:osb="http://www.openswatchbook.org/uri/2009/osb"
   xmlns:dc="http://purl.org/dc/elements/1.1/"
   xmlns:cc="http://creativecommons.org/ns#"
   xmlns:rdf="http://www.w3.org/1999/02/22-rdf-syntax-ns#"
   xmlns:svg="http://www.w3.org/2000/svg"
   xmlns="http://www.w3.org/2000/svg"
   xmlns:xlink="http://www.w3.org/1999/xlink"
   xmlns:sodipodi="http://sodipodi.sourceforge.net/DTD/sodipodi-0.dtd"
   xmlns:inkscape="http://www.inkscape.org/namespaces/inkscape"
   id="svg2"
   version="1.1"
   inkscape:version="0.48.2 r9819"
   width="516"
   height="514.59998"
   sodipodi:docname="green_medical_rx_symbol.svg"
   inkscape:export-filename="C:\Documents and Settings\Keith\My Documents\iPharmD.net\images\index\green_medical_rx_symbol.png"
   inkscape:export-xdpi="89.970001"
   inkscape:export-ydpi="89.970001">
  <title
     id="title6842">Green medical rx symbol</title>
  <metadata
     id="metadata8">
    <rdf:RDF>
      <cc:Work
         rdf:about="">
        <dc:format>image/svg+xml</dc:format>
        <dc:type
           rdf:resource="http://purl.org/dc/dcmitype/StillImage" />
        <dc:title>Green medical rx symbol</dc:title>
        <dc:creator>
          <cc:Agent>
            <dc:title>Keith Chung, PharmD</dc:title>
          </cc:Agent>
        </dc:creator>
        <dc:subject>
          <rdf:Bag>
            <rdf:li>rx</rdf:li>
            <rdf:li>symbol</rdf:li>
            <rdf:li>pharmacist</rdf:li>
            <rdf:li>pharmacy</rdf:li>
          </rdf:Bag>
        </dc:subject>
        <dc:description>rx symbol with outline italic style</dc:description>
        <cc:license
           rdf:resource="http://creativecommons.org/licenses/by-nc-nd/3.0/" />
      </cc:Work>
      <cc:License
         rdf:about="http://creativecommons.org/licenses/by-nc-nd/3.0/">
        <cc:permits
           rdf:resource="http://creativecommons.org/ns#Reproduction" />
        <cc:permits
           rdf:resource="http://creativecommons.org/ns#Distribution" />
        <cc:requires
           rdf:resource="http://creativecommons.org/ns#Notice" />
        <cc:requires
           rdf:resource="http://creativecommons.org/ns#Attribution" />
        <cc:prohibits
           rdf:resource="http://creativecommons.org/ns#CommercialUse" />
      </cc:License>
    </rdf:RDF>
  </metadata>
  <defs
     id="defs6">
    <linearGradient
       id="linearGradient3754">
      <stop
         style="stop-color:#15001b;stop-opacity:1;"
         offset="0"
         id="stop3756" />
      <stop
         style="stop-color:blue;stop-opacity:0;"
         offset="1"
         id="stop3758" />
    </linearGradient>
    <linearGradient
       id="linearGradient5245"
       osb:paint="solid">
      <stop
         style="stop-color:#0000ff;stop-opacity:1;"
         offset="0"
         id="stop5247" />
    </linearGradient>
    <radialGradient
       inkscape:collect="always"
       xlink:href="#linearGradient3953"
       id="radialGradient4178"
       gradientUnits="userSpaceOnUse"
       cx="375.71429"
       cy="342.36218"
       fx="375.71429"
       fy="342.36218"
       r="187.14285"
       gradientTransform="translate(173.3642,170.73229)" />
    <linearGradient
       id="linearGradient3953">
      <stop
         style="stop-color:#ffaaaa;stop-opacity:1;"
         offset="0"
         id="stop3955" />
      <stop
         style="stop-color:#e32424;stop-opacity:1;"
         offset="1"
         id="stop3957" />
    </linearGradient>
    <radialGradient
       r="187.14285"
       fy="342.36218"
       fx="375.71429"
       cy="342.36218"
       cx="375.71429"
       gradientTransform="translate(173.3642,170.73229)"
       gradientUnits="userSpaceOnUse"
       id="radialGradient3054"
       xlink:href="#linearGradient3953"
       inkscape:collect="always" />
  </defs>
  <sodipodi:namedview
     pagecolor="#ffffff"
     bordercolor="#666666"
     borderopacity="1"
     objecttolerance="20"
     gridtolerance="10000"
     guidetolerance="20"
     inkscape:pageopacity="0"
     inkscape:pageshadow="2"
     inkscape:window-width="1600"
     inkscape:window-height="814"
     id="namedview4"
     showgrid="true"
     inkscape:zoom="0.58672729"
     inkscape:cx="61.416435"
     inkscape:cy="139.27604"
     inkscape:window-x="-4"
     inkscape:window-y="-4"
     inkscape:window-maximized="1"
     inkscape:current-layer="svg2"
     inkscape:snap-page="false"
     fit-margin-top="1.6"
     fit-margin-left="2"
     fit-margin-right="2"
     fit-margin-bottom="1">
    <inkscape:grid
       type="xygrid"
       id="grid3799"
       empspacing="5"
       visible="true"
       enabled="true"
       snapvisiblegridlinesonly="true"
       spacingx="20px"
       spacingy="20px" />
  </sodipodi:namedview>
  <path
     style="fill:green;fill-opacity:1;fill-rule:nonzero;stroke:blue;stroke-width:0;stroke-miterlimit:4;stroke-opacity:1;stroke-dasharray:none"
     d="m 148.10001,511.83295 c -22.33734,-6.28124 -32.90155,-21.65156 -25.60749,-37.25734 2.18141,-4.66712 3.22691,-2.55175 3.3592,6.79674 0.10087,7.12447 0.65455,9.17292 3.64562,13.48651 4.28455,6.17901 11.91635,10.4902 23.09881,13.0484 20.20499,4.62242 43.12934,-2.04457 67.16912,-19.53445 10.37216,-7.5462 65.55895,-67.1264 78.16594,-84.3888 l 4.96236,-6.79484 6.9537,6.84594 c 20.73618,20.41504 45.75603,36.656 66.18038,42.95927 29.32359,9.04964 66.36292,8.78862 88.45549,-0.62346 23.70378,-10.09851 38.77495,-22.66768 42.39724,-35.35901 0.89975,-3.15232 7.13722,-11.74633 7.11958,-9.80939 -0.0455,4.85355 -3.24835,15.78268 -5.95308,20.30506 -8.46899,14.16113 -38.84936,31.27239 -62.48032,35.19103 -5.16938,0.85729 -15.26369,1.13018 -29.32378,0.79283 -18.39511,-0.44135 -23.03113,-0.91919 -32.63711,-3.36384 -23.86386,-6.07317 -42.78099,-16.37987 -65.05549,-35.44461 -8.27995,-7.08683 -15.20054,-12.7112 -15.37899,-12.49856 -0.17852,0.21248 -3.11679,3.78075 -6.52959,7.92927 -8.65429,10.51984 -31.20814,35.57661 -50.53474,56.14279 -21.00492,22.35224 -36.80151,33.43779 -56.95806,39.9715 -11.56787,3.74967 -30.75398,4.49985 -41.04879,1.60496 z m 6.37473,-24.85892 c -13.31997,-3.63279 -19.77516,-7.87245 -23.51887,-15.44696 -2.91892,-5.90575 -2.43163,-11.35214 1.66613,-18.62207 4.10904,-7.28994 6.51176,-9.43143 13.25256,-11.81182 10.31396,-3.6422 15.49892,-1.97385 30.13753,9.69727 10.23317,8.15875 11.35373,8.29341 21.81081,2.62143 7.04835,-3.82315 26.1408,-20.14957 37.13542,-31.75546 10.42091,-11.00024 29.49301,-33.66111 31.28756,-37.17496 0.75668,-1.48163 6.03833,-8.19153 11.73698,-14.91085 5.69869,-6.71927 10.36121,-12.37675 10.36121,-12.57198 0,-0.19507 -2.60198,-4.07469 -5.78224,-8.62094 C 262.12991,319.16953 244.88104,282.24391 227.19708,229.85505 222.39593,215.63161 216.637,199.7514 214.39947,194.56577 l -4.06827,-9.42846 -5.59235,0 c -5.06058,0 -5.66704,0.28211 -6.37716,2.96325 -0.43162,1.62979 -9.10283,30.84446 -19.2693,64.92152 -10.16648,34.07707 -19.38654,64.98875 -20.48901,68.6926 -1.10247,3.7038 -1.71803,6.97635 -1.36791,7.27228 2.03632,1.72103 24.77654,1.74935 39.71218,0.0512 8.96402,-1.02021 17.13101,-1.58484 18.14886,-1.25475 2.58553,0.83855 2.36897,7.8836 -0.38252,12.44408 -3.68883,6.11419 -7.29951,7.56238 -23.25737,9.32852 -12.92155,1.43006 -17.19793,1.42571 -38.81973,-0.041 -35.59492,-2.41147 -72.201725,-2.25392 -95.558089,0.41113 -10.442701,1.19163 -19.551056,1.87182 -20.240759,1.51158 -1.766047,-0.92252 -0.296278,-11.27765 2.173701,-15.31445 2.701471,-4.41518 7.162408,-6.75742 14.817759,-7.78019 8.381701,-1.11984 28.347811,-8.62933 36.260486,-13.63806 12.597762,-7.97444 21.278772,-28.68848 39.398052,-94.00947 4.52081,-16.29775 10.85667,-37.50055 14.07966,-47.11732 13.43475,-40.08655 26.8037,-90.9216 24.77942,-94.22292 -1.15578,-1.88503 -6.0311,-3.46439 -14.35232,-4.64951 l -4.94228,-0.7039 0.80675,-4.97448 c 0.44368,-2.73597 1.80715,-6.70288 3.02986,-8.81524 l 2.22311,-3.84086 10.83705,-0.7255 c 16.67899,-1.11652 32.04324,-2.97851 52.27278,-6.33476 11.18354,-1.85549 18.94803,-2.6776 19.65441,-2.08102 0.70683,0.59699 -5.21469,23.39052 -15.00379,57.75359 -8.89431,31.22205 -15.928,56.97314 -15.63039,57.22469 0.29769,0.25139 9.05731,0.50381 19.4661,0.5611 21.24443,0.11622 31.1886,-1.38747 44.39531,-6.71451 9.79555,-3.9512 22.68521,-12.29468 29.18912,-18.89425 7.34615,-7.45429 17.8813,-22.09081 21.69344,-30.13892 4.0668,-8.58576 5.71458,-25.42439 3.48024,-35.56493 -4.34648,-19.7264 -21.52105,-33.54162 -52.42178,-42.16799 -10.23457,-2.8571 -12.11273,-3.02709 -33.78605,-3.05694 -26.76571,-0.041 -39.98339,1.662 -63.7473,8.19347 -33.77353,9.28254 -76.007322,31.22974 -95.732394,49.74833 -24.454877,22.95906 -39.101166,55.46506 -37.172645,82.50111 1.18387,16.59655 9.188972,28.75535 29.937124,45.47089 12.55809,10.11725 15.097178,14.12278 14.029135,22.13121 -1.284893,9.63449 -9.648475,14.82293 -23.893964,14.82293 -10.043797,0 -16.1723,-2.38412 -24.516284,-9.53716 C 20.09913,224.07765 8.1027089,186.31138 11.714561,156.30158 17.531234,107.97261 47.066686,69.89981 103.25609,38.29964 144.07182,15.34534 198.79393,1.6090705 249.45825,1.6000105 c 43.83276,-0.0102 80.36525,7.42353 105.26164,21.4118495 43.19803,24.27141 48.67858,74.43835 12.19708,111.6466 -21.66082,22.09225 -55.30007,39.19747 -93.14739,47.36452 -5.61769,1.21226 -10.655,2.4344 -11.19399,2.71595 -0.53902,0.28211 0.37604,2.78947 2.03345,5.57321 6.89714,11.58428 37.13409,78.23006 54.48365,120.08823 1.65807,4.00035 3.61743,7.27336 4.35417,7.27336 0.73673,0 2.82587,-2.56138 4.64253,-5.692 4.31023,-7.42751 15.50381,-19.90652 32.69993,-36.45489 21.26007,-20.45922 36.13403,-31.48671 55.09011,-40.84344 24.18011,-11.93531 48.5962,-12.96699 60.11938,-2.54028 10.09494,9.13442 7.5483,22.97749 -5.47931,29.78472 -8.17436,4.2713 -17.02474,6.04968 -36.06442,7.24684 -14.2125,0.89359 -17.58464,1.48484 -24.84304,4.35547 -15.89541,6.28663 -32.1759,18.31431 -46.62543,34.44576 -12.00316,13.40039 -22.12703,26.18434 -24.43827,30.8594 -1.78418,3.60893 -1.67997,4.03727 2.79669,11.49735 21.39388,35.65131 49.80828,56.73292 79.01935,58.62721 22.90506,1.48531 37.81467,-8.87074 44.55026,-30.94414 2.41869,-7.92646 4.03865,-9.8312 12.05231,-14.17096 9.46545,-5.12603 21.36962,-3.37888 30.03039,4.4075 3.51892,3.16359 3.86071,4.16419 4.27361,12.50987 0.40732,8.23786 0.1024,9.69138 -3.32334,15.82343 -8.73176,15.63082 -38.87673,32.4485 -63.47036,35.40975 -13.606,1.6383 -39.3918,0.5161 -52.31401,-2.27676 -13.39462,-2.89494 -30.84743,-10.18663 -43.78074,-18.29126 -11.3156,-7.09088 -28.71094,-21.45624 -36.6397,-30.25756 -4.23378,-4.69974 -5.08799,-5.19955 -6.18695,-3.61967 -13.08003,18.80382 -69.12168,80.39797 -81.66556,89.7569 -24.14015,18.01064 -49.32495,25.14601 -69.41552,19.6666 z M 32.380092,376.87274 c -5.442753,-1.79793 -6.804366,-11.11457 -2.891668,-19.78564 1.289626,-2.85797 1.606195,-2.99365 3.416576,-1.4636 1.666571,1.40856 1.773045,2.5621 0.646264,7.00256 -1.577177,6.21541 -0.748305,10.00764 2.183441,9.98982 1.145349,-0.004 11.227459,-0.97679 22.40467,-2.15511 24.886026,-2.62348 46.933345,-2.72009 85.349315,-0.37376 24.71468,1.50938 31.37097,1.57491 43.54085,0.42855 7.90134,-0.7443 15.69648,-1.91385 17.32249,-2.59901 4.35222,-1.83383 8.51932,-7.6847 9.52997,-13.38058 1.44868,-8.1648 5.62174,-10.00293 5.60787,-2.47024 -0.0159,8.31435 -4.95721,16.48954 -11.92364,19.72486 -1.50211,0.6975 -9.61584,2.08353 -18.03048,3.07998 -14.0605,1.66492 -17.1576,1.67884 -38.24837,0.17152 -32.98847,-2.35776 -76.38706,-2.34214 -95.620976,0.0358 -8.414647,1.03966 -16.446811,2.08384 -17.849253,2.32033 -1.402437,0.23654 -3.849114,7.1e-4 -5.437059,-0.52388 z M 263.07401,354.57985 c -15.96022,-26.50732 -29.23901,-56.4246 -42.44599,-95.63133 -11.4827,-34.08792 -17.69437,-49.3993 -19.44034,-47.91911 -0.47138,0.39987 -27.26177,88.30385 -33.07655,108.53052 -0.7241,2.51873 -1.7936,4.57953 -2.37668,4.57953 -1.42944,0 -1.47468,0.24524 2.03975,-11.04961 2.96596,-9.53188 13.05201,-42.8027 25.5593,-84.3123 7.58,-25.15677 6.7938,-23.34921 9.98659,-22.96055 3.9397,0.47975 8.0378,9.57239 19.91571,44.18828 16.17852,47.14912 27.02086,72.15929 43.03358,99.26616 5.34275,9.04441 7.89328,14.53499 7.38303,15.89363 -0.42849,1.1417 -1.26903,2.07579 -1.86734,2.07579 -0.59832,0 -4.51828,-5.69747 -8.71106,-12.66101 z m 83.28723,-7.7934 c -0.6583,-1.75277 1.88602,-5.34568 11.4262,-16.13518 15.49885,-17.52855 30.3234,-28.73585 47.84158,-36.16797 5.83976,-2.47746 9.46245,-3.11511 21.82304,-3.84097 34.62906,-2.03366 50.859,-9.53777 50.859,-23.51545 0,-1.68821 1.17959,-3.89124 2.70308,-5.0481 l 2.70296,-2.05271 -0.5029,7.66058 c -0.38741,5.89716 -1.22994,8.57117 -3.65932,11.61583 -7.56019,9.4752 -28.34079,15.7435 -52.19259,15.7435 -8.38196,0 -10.8767,0.48743 -18.57127,3.62685 -17.89084,7.30003 -31.83471,17.86477 -47.83414,36.242 -6.44958,7.40802 -12.18143,13.61703 -12.73751,13.79787 -0.55609,0.18073 -1.39197,-0.68603 -1.85767,-1.92625 z M 49.036475,273.70546 C 36.71531,269.9928 29.231872,264.32953 20.958249,252.45653 8.2930818,234.28148 0.243646,202.97618 2.3277303,179.99991 c 0.4444729,-4.89993 1.0204899,-8.72932 1.2801194,-8.50988 0.259584,0.21965 1.0063417,4.71326 1.6593919,9.98634 3.5486263,28.65387 7.1757254,43.17093 14.6927384,58.806 6.272136,13.04573 17.836497,24.66534 28.243716,28.37857 7.388929,2.63633 17.032721,2.36497 24.223414,-0.68147 7.649422,-3.24091 10.754525,-6.8527 11.595064,-13.48734 0.65755,-5.19023 2.149006,-7.93527 4.311467,-7.93527 1.525703,0 1.401565,9.33308 -0.18853,14.17127 -3.559891,10.83205 -23.866196,17.57032 -39.108676,12.97733 z M 278.91839,203.90607 c -0.42575,-0.93742 -0.77389,-1.85999 -0.77389,-2.05015 0,-0.18995 4.13483,-1.40707 9.18849,-2.70443 27.68108,-7.10598 63.16193,-28.1708 80.6432,-47.87759 4.64741,-5.23903 12.24689,-17.14044 14.01206,-21.94397 0.49914,-1.35812 3.18719,-6.44949 5.97369,-11.31415 l 5.06626,-8.84473 -0.83053,5.38771 c -1.35179,8.76927 -6.4934,20.9255 -12.98908,30.70975 -14.54174,21.90383 -55.34561,48.75081 -87.52111,57.58453 -11.83597,3.24956 -11.77408,3.24444 -12.76909,1.05303 z m -62.66391,-50.55606 c 0.50631,-2.37056 5.3928,-19.82665 10.85881,-38.79125 5.46605,-18.96464 10.69212,-37.14808 11.61349,-40.40762 0.92137,-3.25954 1.8763,-5.13945 2.12208,-4.17756 0.48333,1.89184 -23.41155,86.04973 -24.72149,87.06912 -0.4364,0.33945 -0.37917,-1.32208 0.12714,-3.69269 z M 49.969447,151.19495 C 49.956927,135.45247 66.885586,111.73289 89.586789,95.68561 106.62471,83.6416 140.52744,65.23683 142.54078,66.93845 c 2.01694,1.7046 -1.88061,5.35362 -9.48048,8.87581 -10.5116,4.87162 -28.61543,15.51956 -40.086347,23.5771 -15.618468,10.97096 -30.181187,28.31958 -38.735773,46.14621 -3.256128,6.78521 -4.266747,8.12466 -4.268733,5.65738 z m 99.588283,-50.18691 c -9.72892,-1.61653 -11.22395,-4.48536 -8.1919,-15.71975 1.44574,-5.35679 2.32246,-6.83447 3.7754,-6.36322 1.04081,0.33792 2.39373,0.61373 3.0065,0.61373 0.61277,0 0.27893,2.00053 -0.74175,4.44569 -1.02072,2.44505 -1.85586,6.05976 -1.85586,8.03265 0,3.30731 0.37285,3.63944 4.78105,4.25855 7.28359,1.02308 7.96841,1.34128 7.96841,3.70252 0,2.36702 -0.40624,2.41479 -8.74185,1.02983 z m 166.92481,-2.24701 c -0.13477,-5.93447 -4.29456,-16.11839 -8.88906,-21.76226 -4.52979,-5.5644 -13.98179,-11.97125 -23.71172,-16.07241 -9.47062,-3.99196 -26.76009,-8.32593 -33.21437,-8.32593 -4.82151,0 -5.67148,-0.32255 -5.67148,-2.15505 0,-3.4244 11.58821,-2.91896 25.88454,1.12911 22.3646,6.33271 36.62447,14.97802 44.00267,26.6775 3.39031,5.37604 4.0449,7.56735 3.97005,13.29058 -0.10064,7.69846 -2.21363,14.13229 -2.37063,7.21846 z"
     id="path2987"
     inkscape:connector-curvature="0" />
</svg>
