<svg xmlns="http://www.w3.org/2000/svg" width="12" height="12" viewBox="0 0 12 12">
  <path fill="#FFF" d="M11.55468,0.864929032 L9.11718,0.320574194 C8.99218,0.290332129 8.86718,0.305453161 8.74218,0.36593729 C8.61718,0.426421161 8.53124253,0.517146968 8.4843676,0.63811471 L7.3593676,3.17843729 C7.31249267,3.284284 7.30468016,3.39391097 7.33593008,3.50731819 C7.36718021,3.62072542 7.42968021,3.722792 7.52343008,3.81351794 L8.92967808,4.92490761 C8.50780341,5.80192439 7.94139675,6.58821471 7.23045808,7.28377858 C6.51951941,7.97934245 5.70311275,8.53125729 4.78123808,8.9395231 L3.63280208,7.57863794 C3.53905221,7.48791226 3.43358341,7.42742839 3.31639568,7.39718632 C3.19920821,7.36694426 3.08592701,7.37450475 2.97655208,7.41986779 L0.35155208,8.50857747 C0.22655208,8.55394031 0.13280208,8.6371056 0.07030208,8.75807334 C0.00780208,8.87904108 -0.00782298667,9.00000883 0.02342688,9.12097657 L0.58592688,11.4798475 C0.601551893,11.6159363 0.664051893,11.721783 0.77342688,11.7973877 C0.882801813,11.8729926 0.99998928,11.910795 1.12498928,11.910795 C3.09373861,11.910795 4.92185861,11.4344841 6.60934928,10.4818621 C8.24997328,9.54436276 9.55466128,8.28176147 10.5234133,6.69405825 C11.5077893,5.06099502 11.9999773,3.29184663 11.9999773,1.38661308 C11.9999773,1.26564534 11.9609147,1.15223812 11.8827897,1.04639141 C11.8046646,0.940544697 11.6952897,0.880060826 11.5546649,0.864939794 L11.55468,0.864929032 Z" transform="matrix(-1 0 0 1 12 0)"/>
</svg>
