<svg id="Layer_1" data-name="Layer 1" xmlns="http://www.w3.org/2000/svg" viewBox="0 0 74.61 67.83"><defs><style>.cls-1{fill:#fff;}.cls-2{fill:#ea234f;}</style></defs><title>Untitled-1</title><path class="cls-1" d="M297.37,451.77a32.8,32.8,0,0,1-4.33-.28c-11.78-1.53-22.48-8.86-27.27-18.66-3-6.1-5.07-15.85,1.88-27.66,7.39-12.55,17.54-15.21,24.76-15.23a34.57,34.57,0,0,1,22.66,8.93,5.26,5.26,0,0,1,9-1.09c8.75,11.34,10,25.06,3.3,36.69A34.64,34.64,0,0,1,297.37,451.77Zm-4-26.31a6.42,6.42,0,0,0,3.59,1.05h.12a5.13,5.13,0,0,1-.67-1.32,5.15,5.15,0,0,1-2,.38h-.16A4.63,4.63,0,0,1,293.41,425.46Zm.68-16.89a4.64,4.64,0,0,1,.25.42l.4.74.68-1.12c-.41,0-.82,0-1.23,0Z" transform="translate(-260.02 -386.94)"/><path class="cls-2" d="M292.48,392.94c10.54,0,20.67,6.44,24.39,12.68,2.78,4.68,5.53,15.41,1.06,24.29-2.3,4.56-7.47,10.25-19,11.42-1,.1-2,.15-2.93.15-6.56,0-12.22-2.33-16.16-6.72-4.52-5-6.24-12.08-4.71-19.36a17,17,0,0,1,8-11.57,21.82,21.82,0,0,1,11.07-2.78,27.87,27.87,0,0,1,8.11,1.21c4.44,1.38,8.11,5.23,10.07,10.55,1.73,4.69,1.73,9.47,0,12.19-3.46,5.46-9.21,8.92-15,9h-.25a14.49,14.49,0,0,1-12.21-6.63c-3.68-5.38-2.48-10-.82-12.91a16.09,16.09,0,0,1,4.35-4.85,2.21,2.21,0,0,1,1.28-.41,2.33,2.33,0,0,1,.53.07,2.24,2.24,0,0,1,1.46,1.12l2.89,5.36,3.32-5.49a2.27,2.27,0,0,1,1.5-1,2.09,2.09,0,0,1,.43,0,2.27,2.27,0,0,1,1.35.44c.54.4,5.27,4.06,5.32,8.91,0,1.76-.61,4.36-3.69,6.75a2.24,2.24,0,0,1-1.38.47,2.26,2.26,0,0,1-1.39-4C302,420.22,302,419,302,418.6a6.17,6.17,0,0,0-1.68-3.57l-3.9,6.45a2.23,2.23,0,0,1-1.92,1.09h-.07a2.25,2.25,0,0,1-1.93-1.18l-3.37-6.26a9.79,9.79,0,0,0-1.11,1.58c-1.51,2.66-1.31,5.32.61,8.12a9.9,9.9,0,0,0,8.38,4.68h.28c4.31-.08,8.63-2.73,11.28-6.92.8-1.26.92-4.57-.43-8.22-.69-1.89-2.78-6.43-7.18-7.8a23.36,23.36,0,0,0-6.76-1,17.36,17.36,0,0,0-8.78,2.15,12.43,12.43,0,0,0-5.9,8.61c-1.23,5.85.1,11.47,3.64,15.41,3.07,3.41,7.56,5.22,12.83,5.22q1.2,0,2.46-.12c7.65-.78,12.85-3.79,15.45-9,3.43-6.81,1.49-15.93-.9-19.95-3-5-11.69-10.47-20.51-10.47h-.05c-7.55,0-13.88,4-18.31,11.53-4.16,7.06-4.71,14.17-1.59,20.54C276.18,437,284.81,442.84,294,444a25.43,25.43,0,0,0,3.37.22,27.26,27.26,0,0,0,23.45-13.54c5.19-9,4.19-19.37-2.74-28.35a2.25,2.25,0,0,1,1.78-3.64,2.23,2.23,0,0,1,1.79.88c8,10.35,9.14,22.82,3.08,33.36a31.83,31.83,0,0,1-27.38,15.8,30.65,30.65,0,0,1-3.94-.25c-10.81-1.41-20.61-8.09-25-17-2.66-5.44-4.51-14.16,1.76-24.81,6.68-11.34,15.75-13.74,22.19-13.76h.06m0-6h-.06c-11.32,0-21,6-27.36,16.71-5.95,10.11-6.65,20.94-2,30.5,5.21,10.68,16.82,18.65,29.57,20.32a37.16,37.16,0,0,0,4.72.3A37.63,37.63,0,0,0,330,436c7.31-12.72,6-27.68-3.53-40a8.18,8.18,0,0,0-6.54-3.21,8.3,8.3,0,0,0-5,1.72l-.22.18a37.44,37.44,0,0,0-22.14-7.69Z" transform="translate(-260.02 -386.94)"/></svg>