<svg width="448" height="512" viewBox="0 0 448 512" fill="none" xmlns="http://www.w3.org/2000/svg">
<rect width="448" height="512" fill="black" fill-opacity="0"/>
<path d="M192 188V404C192 410.627 186.627 416 180 416H156C149.373 416 144 410.627 144 404V188C144 181.373 149.373 176 156 176H180C186.627 176 192 181.373 192 188ZM292 176H268C261.373 176 256 181.373 256 188V404C256 410.627 261.373 416 268 416H292C298.627 416 304 410.627 304 404V188C304 181.373 298.627 176 292 176ZM424 80C437.255 80 448 90.745 448 104V116C448 122.627 442.627 128 436 128H416V464C416 490.51 394.51 512 368 512H80C53.49 512 32 490.51 32 464V128H12C5.373 128 0 122.627 0 116V104C0 90.745 10.745 80 24 80H98.411L132.429 23.304C136.694 16.1963 142.726 10.3141 149.939 6.23023C157.152 2.14634 165.3 -7.97458e-05 173.589 2.22215e-09L274.412 2.22214e-09C282.701 -7.97458e-05 290.849 2.14634 298.062 6.23023C305.275 10.3141 311.307 16.1963 315.572 23.304L349.589 80H424ZM154.389 80H293.612L276.16 50.913C275.627 50.0245 274.873 49.2893 273.971 48.7788C273.07 48.2683 272.051 48 271.015 48H176.987C175.951 48 174.932 48.2683 174.031 48.7788C173.129 49.2893 172.375 50.0245 171.842 50.913L154.389 80ZM368 128H80V458C80 459.591 80.6321 461.117 81.7574 462.243C82.8826 463.368 84.4087 464 86 464H362C363.591 464 365.117 463.368 366.243 462.243C367.368 461.117 368 459.591 368 458V128Z" fill="#E94545"/>
</svg>
